<?xml version="1.0" encoding="UTF-8" standalone="no"?>
<!-- Created with Inkscape (http://www.inkscape.org/) -->

<svg
   width="210mm"
   height="297mm"
   viewBox="0 0 210 297"
   version="1.1"
   id="svg5"
   inkscape:version="1.1.1 (3bf5ae0d25, 2021-09-20)"
   sodipodi:docname="brain_cool.svg"
   xmlns:inkscape="http://www.inkscape.org/namespaces/inkscape"
   xmlns:sodipodi="http://sodipodi.sourceforge.net/DTD/sodipodi-0.dtd"
   xmlns="http://www.w3.org/2000/svg"
   xmlns:svg="http://www.w3.org/2000/svg">
  <sodipodi:namedview
     id="namedview7"
     pagecolor="#ffffff"
     bordercolor="#666666"
     borderopacity="1.0"
     inkscape:pageshadow="2"
     inkscape:pageopacity="0.0"
     inkscape:pagecheckerboard="0"
     inkscape:document-units="mm"
     showgrid="false"
     inkscape:zoom="0.37059484"
     inkscape:cx="771.73228"
     inkscape:cy="630.06814"
     inkscape:window-width="1920"
     inkscape:window-height="1017"
     inkscape:window-x="-8"
     inkscape:window-y="-8"
     inkscape:window-maximized="1"
     inkscape:current-layer="layer1" />
  <defs
     id="defs2" />
  <g
     inkscape:label="Layer 1"
     inkscape:groupmode="layer"
     id="layer1">
    <g
       id="g405"
       transform="matrix(4.7617769,0,0,4.7617769,-406.58774,-428.46141)">
      <path
         style="fill:#fefefe;stroke-width:0.0423333"
         d="m 85.190712,121.41481 v -20.193 h 22.034498 22.0345 v 20.193 20.193 h -22.0345 -22.034498 z"
         id="path415" />
      <path
         style="fill:#ecadde;stroke-width:0.0423333"
         d="m 104.42435,137.03315 c -0.0503,-0.0188 -0.10421,-0.0741 -0.1197,-0.12297 -0.0538,-0.16951 0.13789,-0.37482 1.03673,-1.11033 0.24447,-0.20005 0.49212,-0.41572 0.55033,-0.47925 l 0.10584,-0.11552 -0.18891,0.0953 c -0.26663,0.13453 -1.75446,1.01386 -2.30173,1.36037 -0.45478,0.28794 -0.59911,0.33754 -0.69706,0.23959 -0.13169,-0.13169 -0.0575,-0.25949 0.3992,-0.68724 0.66395,-0.62194 1.4878,-1.54797 1.37716,-1.54797 -0.0471,0 -2.04875,1.32177 -2.45624,1.62198 -0.14808,0.1091 -0.29572,0.19836 -0.32808,0.19836 -0.0828,0 -0.22814,-0.15488 -0.22838,-0.24342 -1.3e-4,-0.0407 0.14879,-0.21696 0.3309,-0.39158 0.49944,-0.47893 1.44573,-1.62435 1.3889,-1.68118 -0.0851,-0.0851 -2.24446,1.43085 -2.91793,2.04842 -0.17829,0.1635 -0.27939,0.22543 -0.36801,0.22543 -0.137756,0 -0.261815,-0.13758 -0.223889,-0.24828 0.01304,-0.0381 0.179221,-0.22162 0.369279,-0.40789 0.32896,-0.32238 0.85752,-0.97971 0.81887,-1.01836 -0.01,-0.01 -0.19771,0.10857 -0.41713,0.26349 -0.991916,0.70032 -1.499147,1.03004 -1.584576,1.03004 -0.138933,0 -0.248452,-0.14253 -0.214245,-0.27882 0.03739,-0.14897 0.02514,-0.14342 -0.656432,0.29725 -0.568878,0.36782 -0.737024,0.4274 -0.843622,0.29896 -0.03133,-0.0377 -0.04247,-0.11519 -0.02741,-0.1905 0.01396,-0.0698 0.01952,-0.12689 0.01237,-0.12689 -0.0072,0 -0.230266,0.11668 -0.495803,0.25929 -0.508222,0.27295 -0.653057,0.3084 -0.745185,0.18241 -0.08734,-0.11945 -0.06914,-0.19693 0.112192,-0.47747 0.09262,-0.14331 0.156404,-0.26057 0.14173,-0.26057 -0.01467,0 -0.309577,0.0879 -0.655342,0.19531 -0.610735,0.18973 -0.63182,0.19323 -0.7394,0.12274 -0.09656,-0.0633 -0.107886,-0.0938 -0.08846,-0.23869 l 0.02228,-0.16613 -0.133696,0.0804 c -0.682408,0.41032 -1.341507,0.76838 -1.414401,0.76838 -0.049,0 -0.119017,-0.0299 -0.155604,-0.0665 -0.130674,-0.13068 -0.07923,-0.25843 0.240392,-0.59701 0.168805,-0.17882 0.268817,-0.31067 0.22225,-0.293 -1.108905,0.42073 -1.198237,0.43811 -1.317362,0.2563 -0.05776,-0.0882 -0.0615,-0.12727 -0.02074,-0.21674 0.03969,-0.0871 0.03876,-0.10469 -0.0046,-0.087 -0.02987,0.0122 -0.260652,0.11089 -0.512838,0.21935 -0.435873,0.18747 -0.463578,0.19389 -0.560917,0.13012 -0.112663,-0.0738 -0.130959,-0.18046 -0.04948,-0.28839 0.06085,-0.0806 0.616243,-0.34294 1.400669,-0.6616 0.520848,-0.21158 0.547756,-0.21791 0.647858,-0.15232 0.135126,0.0885 0.164562,0.1713 0.106362,0.29903 -0.03151,0.0692 -0.03254,0.10314 -0.0031,0.10314 0.02413,0 0.314837,-0.1143 0.646024,-0.254 0.331186,-0.13971 0.643052,-0.25401 0.693035,-0.25401 0.199686,0 0.287266,0.2294 0.158026,0.41392 -0.03625,0.0517 -0.0528,0.0941 -0.03679,0.0941 0.01601,0 0.259981,-0.13166 0.542151,-0.29257 0.732766,-0.41787 0.885358,-0.4861 1.014593,-0.45367 0.130164,0.0327 0.212272,0.16558 0.174945,0.28318 -0.01468,0.0462 -0.132625,0.19851 -0.262105,0.33837 -0.129479,0.13985 -0.228063,0.26112 -0.219074,0.26949 0.009,0.008 0.187787,-0.0375 0.39733,-0.10185 0.234335,-0.072 0.413581,-0.10518 0.465666,-0.0862 0.131677,0.048 0.188166,0.19634 0.140517,0.36891 -0.02246,0.0814 -0.0324,0.15636 -0.02209,0.16667 0.01031,0.0103 0.245064,-0.10284 0.521669,-0.25146 1.791371,-0.96248 2.161173,-1.12815 2.238585,-1.0029 0.01439,0.0233 0.05418,0.0423 0.08841,0.0423 0.07022,0 0.943088,-0.58143 1.266258,-0.84347 0.11641,-0.0944 0.25157,-0.17183 0.30035,-0.17208 0.0958,-4.9e-4 0.22881,0.12075 0.22881,0.20849 0,0.0356 0.0254,0.0431 0.0741,0.022 0.17424,-0.0756 0.36278,-0.0736 0.4199,0.005 0.0914,0.12501 0.0663,0.24408 -0.10877,0.51488 -0.20189,0.31236 -0.27829,0.45242 -0.23069,0.4229 0.0198,-0.0123 0.25466,-0.16846 0.52194,-0.34708 0.51389,-0.34343 1.32789,-0.76794 1.55381,-0.81033 0.10879,-0.0204 0.15623,-0.004 0.24605,0.086 0.15661,0.15661 0.10886,0.27701 -0.3849,0.97054 -0.26121,0.36688 -0.2576,0.36698 0.29445,0.008 0.63144,-0.41075 1.39349,-0.82623 1.51541,-0.82623 0.16764,0 0.27197,0.16489 0.21242,0.33572 -0.0525,0.1505 -0.29702,0.4909 -0.69596,0.96871 -0.16161,0.19356 -0.28526,0.3605 -0.27477,0.37099 0.0105,0.0105 0.23629,-0.10754 0.50179,-0.26229 0.62795,-0.366 1.46466,-0.77813 1.57976,-0.77813 0.0498,0 0.13165,0.0287 0.18179,0.0639 0.0863,0.0604 0.11691,0.0451 0.57196,-0.28575 0.92211,-0.67048 1.67753,-1.14688 1.81857,-1.14688 0.15992,0 0.25833,0.11655 0.23533,0.27869 -0.009,0.064 -0.0109,0.11642 -0.004,0.11642 0.007,0 0.40459,-0.29624 0.88388,-0.65832 0.70642,-0.53366 0.88904,-0.65292 0.96446,-0.62981 0.15175,0.0465 0.19888,0.10535 0.19888,0.24843 0,0.10769 -0.11136,0.28303 -0.54632,0.8602 -0.30048,0.39871 -0.56059,0.74802 -0.57804,0.77625 -0.0407,0.0658 -0.0324,0.0606 0.56767,-0.35981 0.59584,-0.41743 1.01061,-0.67993 1.13807,-0.72027 0.0702,-0.0222 0.12199,-0.002 0.20108,0.0766 0.0586,0.0586 0.10654,0.13674 0.10654,0.17365 0,0.087 -0.12205,0.31785 -0.3348,0.63332 -0.0935,0.13864 -0.16336,0.25871 -0.15525,0.26682 0.008,0.008 0.3726,-0.2548 0.80998,-0.58424 0.43738,-0.32943 0.87871,-0.63953 0.98074,-0.6891 0.17028,-0.0827 0.19487,-0.0849 0.29937,-0.0262 0.21649,0.12151 0.18644,0.2697 -0.16246,0.80104 -0.1413,0.21519 -0.24976,0.39838 -0.24104,0.4071 0.009,0.009 0.29848,-0.19473 0.64391,-0.45213 1.00537,-0.74915 1.22802,-0.84308 1.37497,-0.58004 0.0609,0.109 0.0561,0.13099 -0.0915,0.42333 -0.0857,0.1696 -0.21508,0.40963 -0.28762,0.53341 -0.15659,0.26721 -0.18555,0.27685 0.55105,-0.18353 0.26813,-0.16758 0.52935,-0.31798 0.58048,-0.33421 0.12534,-0.0398 0.25555,0.0369 0.31904,0.18783 l 0.0523,0.12433 0.37718,-0.29548 c 0.4043,-0.31674 0.54542,-0.36082 0.67981,-0.21231 0.0471,0.0521 0.0676,0.12333 0.0548,0.1905 -0.0113,0.059 -0.0126,0.10732 -0.003,0.10732 0.01,0 0.14396,-0.0762 0.29837,-0.16934 0.33836,-0.20407 0.45095,-0.21356 0.5525,-0.0466 l 0.0747,0.12275 0.27398,-0.16496 c 0.3145,-0.18936 0.36948,-0.19766 0.52085,-0.0786 l 0.11012,0.0866 0.34632,-0.19976 c 0.32446,-0.18714 0.35307,-0.19595 0.45311,-0.13954 0.0587,0.0331 0.12521,0.11737 0.14773,0.18722 0.0225,0.0699 0.0453,0.13238 0.0506,0.13895 0.005,0.007 0.18839,-0.075 0.40682,-0.18135 0.48092,-0.23407 0.67265,-0.29488 0.81614,-0.25887 0.10788,0.0271 0.23743,0.21374 0.23743,0.3421 0,0.0827 0.25169,0.31609 0.34269,0.31776 0.0371,6.9e-4 0.099,0.0361 0.13759,0.0787 0.25487,0.28163 -0.26985,0.48826 -0.57405,0.22606 -0.0765,-0.0659 -0.17407,-0.13264 -0.21686,-0.14826 -0.0428,-0.0156 -0.0994,-0.0855 -0.12569,-0.15531 -0.0264,-0.0698 -0.0726,-0.12691 -0.10273,-0.12691 -0.0301,0 -0.30193,0.12383 -0.60395,0.27517 -0.3032,0.15194 -0.60492,0.27517 -0.6737,0.27517 -0.15051,0 -0.25763,-0.0971 -0.25763,-0.2336 v -0.10055 l -0.24342,0.1281 c -0.23909,0.12582 -0.34736,0.13691 -0.58334,0.0598 -0.0648,-0.0212 -0.2083,0.0584 -0.58347,0.32367 -0.67033,0.47389 -0.67274,0.47522 -0.80398,0.44228 -0.13171,-0.0331 -0.18748,-0.18631 -0.11623,-0.31943 0.0261,-0.0487 0.0366,-0.0886 0.0233,-0.0886 -0.0133,0 -0.1752,0.0857 -0.35985,0.1905 -0.37808,0.21453 -0.46816,0.22973 -0.58955,0.0994 -0.0608,-0.0653 -0.10024,-0.0789 -0.13923,-0.0483 -0.0299,0.0235 -0.27346,0.21126 -0.54122,0.41715 -0.26776,0.20589 -0.54941,0.42764 -0.62589,0.49277 -0.16066,0.13681 -0.30479,0.15141 -0.40472,0.041 -0.11497,-0.12704 -0.0821,-0.22619 0.16808,-0.50661 0.13076,-0.14659 0.23014,-0.27414 0.22083,-0.28345 -0.009,-0.009 -0.2987,0.16301 -0.64309,0.38294 -0.34439,0.21993 -0.65997,0.39987 -0.70129,0.39987 -0.0941,0 -0.21525,-0.13009 -0.21525,-0.23116 0,-0.042 0.13143,-0.25955 0.29208,-0.4835 0.32153,-0.44821 0.48971,-0.71899 0.4631,-0.7456 -0.0159,-0.0159 -1.6306,1.19347 -2.35955,1.76718 -0.17654,0.13893 -0.35183,0.24341 -0.4084,0.24341 -0.0968,0 -0.2309,-0.13837 -0.2309,-0.23822 0,-0.0275 0.17258,-0.24712 0.3835,-0.48799 0.41506,-0.47399 0.99036,-1.21604 0.96356,-1.24284 -0.009,-0.009 -0.1302,0.0721 -0.26907,0.1804 -0.69198,0.53982 -1.94103,1.54484 -2.23546,1.79873 -0.34097,0.29402 -0.4212,0.32732 -0.55423,0.23004 -0.14576,-0.10658 -0.0949,-0.26653 0.17437,-0.54851 0.32768,-0.34313 1.05852,-1.27207 1.21964,-1.55023 0.0579,-0.10001 -0.008,-0.0541 -1.03698,0.71724 -0.75085,0.5631 -1.24204,0.95492 -1.60149,1.27752 -0.31245,0.28042 -0.55751,0.27247 -0.55751,-0.0181 0,-0.0896 0.0763,-0.20008 0.30823,-0.44662 0.58272,-0.61939 1.65632,-1.91202 1.61901,-1.94932 -0.0101,-0.0101 -0.10017,0.0452 -0.2002,0.12297 -0.46026,0.3576 -2.00444,1.62076 -2.40437,1.96679 -0.58177,0.50337 -0.63864,0.53939 -0.77168,0.48881 -0.0979,-0.0372 -0.15965,-0.12282 -0.15965,-0.22127 0,-0.0224 0.30122,-0.34145 0.66939,-0.70911 0.67958,-0.67863 0.9517,-0.99159 0.78425,-0.90198 -0.0457,0.0245 -0.43434,0.30573 -0.86363,0.62504 -0.50788,0.37777 -0.99014,0.78351 -1.38065,1.1616 -0.77668,0.75198 -1.27191,1.09048 -1.48106,1.01236 z m -8.438638,-5.47724 c -1.041499,-0.27215 -2.382645,-0.69353 -2.793137,-0.8776 -0.345528,-0.15494 -0.46653,-0.26638 -0.46653,-0.42966 0,-0.16206 0.713354,-1.26975 1.430625,-2.22146 l 0.520458,-0.69057 -0.211421,-0.19009 c -0.317383,-0.28535 -0.436663,-0.56998 -0.459401,-1.09622 -0.01594,-0.36892 -0.0044,-0.46663 0.08985,-0.76018 0.05947,-0.18527 0.10298,-0.34201 0.09668,-0.34832 -0.0063,-0.006 -0.200796,0.0541 -0.432205,0.13421 -1.755678,0.60785 -3.063319,0.1522 -3.405761,-1.18673 -0.100961,-0.39476 -0.107022,-0.81473 -0.02117,-1.46689 0.128949,-0.97952 0.383579,-1.60339 0.854052,-2.09251 0.159207,-0.16552 0.389478,-0.36223 0.511716,-0.43714 0.122238,-0.0749 0.22225,-0.14102 0.22225,-0.14691 0,-0.006 -0.223837,-0.23769 -0.497417,-0.51511 -0.813657,-0.82507 -1.000613,-1.18518 -0.997974,-1.92225 0.0014,-0.40124 0.01567,-0.48158 0.146215,-0.8255 0.332719,-0.87652 0.719358,-1.22527 1.709009,-1.54153 0.2794,-0.0893 0.588963,-0.17593 0.687917,-0.19255 0.09895,-0.0166 0.179917,-0.0483 0.179917,-0.0705 0,-0.0222 -0.0364,-0.11165 -0.08089,-0.19886 -0.04449,-0.0872 -0.150693,-0.35791 -0.236005,-0.60156 -0.138354,-0.39514 -0.157656,-0.50246 -0.17865,-0.99334 -0.02198,-0.51392 -0.01639,-0.57079 0.08442,-0.85961 0.14473,-0.41464 0.401861,-0.83738 0.651055,-1.07039 0.215355,-0.20136 0.947287,-0.63409 1.297812,-0.76728 0.630565,-0.23959 1.587663,-0.28353 2.276693,-0.10452 0.428971,0.11145 0.685806,0.22292 0.922085,0.40019 l 0.14335,0.10755 -0.02584,-0.14413 c -0.01421,-0.0793 -0.03853,-0.34549 -0.05404,-0.59159 -0.03207,-0.50876 0.0057,-0.67326 0.281804,-1.2261 0.300718,-0.60222 0.623719,-0.86631 1.360663,-1.1125 0.593008,-0.19811 1.145138,-0.29463 1.577198,-0.27574 0.36256,0.0159 0.42185,0.0318 0.79906,0.21411 0.49486,0.23925 0.86025,0.48288 1.16085,0.77403 0.12429,0.12038 0.23235,0.20758 0.24015,0.19377 0.008,-0.0138 0.0274,-0.11633 0.0436,-0.22782 0.0977,-0.67326 0.47857,-1.21168 1.28669,-1.81867 0.7176,-0.539 1.72806,-0.84425 2.82221,-0.85256 0.42103,-0.003 0.56209,0.0131 0.824,0.0949 0.62853,0.19649 1.24375,0.57079 1.64736,1.00225 0.28987,0.30987 0.60242,0.81352 0.68263,1.09999 0.0293,0.10446 0.0653,0.18993 0.0801,0.18993 0.0148,0 0.0913,-0.10954 0.16992,-0.24342 0.37956,-0.64619 0.65168,-0.88081 1.31613,-1.13473 0.59077,-0.22577 1.08809,-0.31519 1.75296,-0.31519 0.67826,0 1.05766,0.0865 1.59336,0.36315 0.66399,0.34294 1.24957,0.9252 1.52726,1.51861 0.11917,0.25467 0.13973,0.35487 0.17736,0.86473 0.0234,0.31717 0.0483,0.58383 0.0552,0.59256 0.007,0.009 0.0944,-0.0169 0.19433,-0.0569 0.28986,-0.11619 0.73257,-0.18924 1.32467,-0.21859 0.47999,-0.0238 0.59578,-0.0158 0.90591,0.0628 0.55824,0.14146 1.10245,0.51991 1.34831,0.93764 0.20025,0.34024 0.2339,0.55728 0.25411,1.63913 0.0205,1.09741 -0.0154,1.54005 -0.15759,1.94469 -0.12576,0.35779 -0.12849,0.35318 0.20957,0.35318 0.33959,0 0.60299,0.0884 0.66912,0.22446 0.15299,0.31482 0.0424,1.54257 -0.21432,2.37904 -0.0723,0.23564 -0.13246,0.33794 -0.29361,0.49944 -0.11147,0.1117 -0.20267,0.23152 -0.20267,0.26627 0,0.0347 0.036,0.13385 0.0799,0.22023 0.11491,0.22584 0.40531,1.15451 0.514,1.64367 0.11674,0.52543 0.12724,1.15245 0.0257,1.538 -0.17454,0.66306 -0.69106,1.48147 -1.17983,1.86942 -0.37041,0.294 -1.18914,0.64286 -1.82643,0.77824 l -0.12177,0.0259 0.0981,0.10443 c 0.12927,0.13761 0.4536,0.28802 0.8911,0.41327 0.47115,0.13487 0.79632,0.17635 0.8151,0.10397 0.008,-0.03 0.0454,-0.18782 0.0837,-0.35081 0.17885,-0.76189 0.74633,-1.49964 1.40329,-1.82433 0.36417,-0.17998 0.55627,-0.17899 0.73882,0.004 0.0972,0.0974 0.10811,0.1411 0.10811,0.43523 v 0.32697 l 0.4054,-0.0142 c 0.5248,-0.0184 0.73037,0.0381 0.95378,0.26189 0.40036,0.40112 0.26338,1.01748 -0.27789,1.25033 -0.18822,0.081 -0.21519,0.10952 -0.25492,0.26993 -0.0747,0.30168 -0.28934,0.70375 -0.4903,0.9186 -0.45543,0.48689 -1.181,0.55344 -1.77624,0.16292 -0.30683,-0.2013 -0.63055,-0.53855 -0.7576,-0.78927 -0.10357,-0.20439 -0.12117,-0.21873 -0.26886,-0.21903 -0.43592,-8.8e-4 -1.15143,-0.19718 -1.56124,-0.42832 -0.18517,-0.10445 -0.34634,-0.25594 -0.573,-0.53862 -0.0296,-0.0369 -0.0906,-0.0481 -0.1725,-0.0318 -0.0697,0.0139 -0.18889,0.0253 -0.26489,0.0253 h -0.13816 l -0.0292,0.62442 c -0.016,0.34343 -0.0257,0.72919 -0.0215,0.85725 0.0182,0.54846 0.0179,0.70794 -0.002,0.86783 l -0.0206,0.16934 0.61384,0.0278 c 0.66553,0.0301 0.77519,0.0532 1.10391,0.23208 0.59276,0.32262 0.747,0.869 0.34161,1.21011 -0.12618,0.10618 -0.22011,0.12893 -0.70296,0.1703 -0.12107,0.0104 -0.12753,0.0221 -0.19268,0.3494 -0.16262,0.81701 -0.61207,1.23806 -1.36941,1.28289 -0.3905,0.0231 -0.67738,-0.0326 -1.15505,-0.22417 -0.55084,-0.22095 -0.95928,-0.55069 -1.20087,-0.96947 l -0.11947,-0.20708 -1.74979,-0.005 -1.74979,-0.005 -0.53257,-0.12019 -0.53258,-0.12019 -0.33913,0.23092 c -0.51169,0.34843 -0.80072,0.43305 -1.47439,0.43167 -0.68247,-0.001 -1.08908,-0.0867 -1.60867,-0.33746 -0.59099,-0.28522 -0.98551,-0.65961 -1.2744,-1.20937 -0.0845,-0.16083 -0.16971,-0.2825 -0.18933,-0.27038 -0.0196,0.0121 -0.0944,0.13216 -0.1661,0.26675 -0.19612,0.36796 -0.52119,0.74517 -0.90101,1.04551 -0.64483,0.50989 -1.30734,0.74289 -2.33194,0.82012 -0.63042,0.0475 -0.96315,0.0328 -1.51862,-0.0673 l -0.37008,-0.0667 -0.497761,0.44178 c -2.005734,1.78016 -2.292002,2.02377 -2.703838,2.30086 -0.409384,0.27545 -0.426389,0.2767 -1.159423,0.0852 z m 18.062878,-3.87577 c 0.8912,0 1.03553,-0.009 1.05718,-0.0653 0.0138,-0.0359 0.0179,-0.0722 0.009,-0.0805 -0.009,-0.008 -0.27299,-0.0371 -0.58732,-0.064 -0.79825,-0.0682 -1.56179,-0.22871 -1.92616,-0.40494 -0.16299,-0.0788 -0.4676,-0.28632 -0.67691,-0.46109 -0.20932,-0.17477 -0.39271,-0.30424 -0.40755,-0.2877 -0.0148,0.0165 -0.0605,0.13483 -0.10148,0.26289 -0.0911,0.28478 -0.20906,0.52768 -0.3429,0.70626 -0.0555,0.0741 -0.101,0.15158 -0.101,0.17215 0,0.0924 1.26091,0.26743 1.73147,0.24031 0.17232,-0.01 0.77775,-0.0181 1.34541,-0.0181 z m -0.10232,-10.86835 c 0.18083,-0.24909 0.63183,-0.99683 0.75851,-1.25756 0.096,-0.19761 0.0731,-0.3074 -0.0536,-0.25633 -0.0674,0.0272 -0.52276,0.65065 -0.74637,1.02186 -0.0805,0.13364 -0.20189,0.31034 -0.26975,0.39266 -0.1403,0.17021 -0.15631,0.27709 -0.0504,0.33636 0.10211,0.0572 0.18973,-2.9e-4 0.36157,-0.23699 z m 5.30996,0.0204 c 0.0963,-0.10593 0.54709,-0.85066 0.71268,-1.17744 0.1218,-0.24037 0.0899,-0.39443 -0.0767,-0.3703 -0.0879,0.0127 -0.17022,0.13424 -0.49989,0.73807 -0.0651,0.11931 -0.19572,0.32725 -0.29018,0.4621 -0.22086,0.31528 -0.22774,0.44282 -0.0239,0.44282 0.0503,0 0.13037,-0.0429 0.17801,-0.0953 z m -5.68382,-0.68076 c 0.39163,-0.60223 0.4153,-0.64877 0.38251,-0.75205 -0.0199,-0.0626 -0.0572,-0.082 -0.13888,-0.0725 -0.0905,0.0106 -0.18221,0.11687 -0.4832,0.56031 -0.37379,0.55069 -0.43291,0.70531 -0.29847,0.78054 0.1229,0.0688 0.2151,-0.0197 0.53804,-0.51631 z m 5.3667,-0.16581 c 0.28267,-0.46569 0.32821,-0.64568 0.1634,-0.64568 -0.0796,0 -0.15003,0.0673 -0.30997,0.29633 -0.37507,0.53709 -0.44743,0.8035 -0.21045,0.77487 0.0843,-0.0102 0.15882,-0.099 0.35702,-0.42552 z"
         id="path413" />
      <path
         style="fill:#f1f66e;stroke-width:0.0423333"
         d="m 104.39544,136.9584 c -0.0385,-0.0426 -0.0701,-0.10016 -0.0701,-0.12795 0,-0.0891 0.34444,-0.42828 0.93133,-0.91713 0.55539,-0.46261 0.89557,-0.78251 0.83212,-0.78251 -0.0848,0 -1.63126,0.89074 -2.55295,1.47047 -0.25584,0.16092 -0.49762,0.30504 -0.53729,0.32027 -0.0741,0.0284 -0.23954,-0.0989 -0.23954,-0.1843 0,-0.0245 0.25985,-0.29597 0.57744,-0.60325 0.54604,-0.5283 1.41222,-1.48865 1.41222,-1.56575 0,-0.0195 -0.0802,0.009 -0.17824,0.0624 -0.18695,0.10274 -2.14089,1.39595 -2.51577,1.66504 -0.23263,0.16699 -0.36891,0.17346 -0.41767,0.0199 -0.0364,-0.11471 0.0305,-0.21775 0.2733,-0.42105 0.3158,-0.26441 1.48372,-1.6724 1.48372,-1.78872 0,-0.17883 -2.1859,1.31542 -2.99334,2.04621 -0.30235,0.27365 -0.39973,0.31263 -0.525863,0.21049 -0.12792,-0.10358 -0.07755,-0.21668 0.203433,-0.45672 0.30775,-0.26292 1.07335,-1.21117 1.02053,-1.26399 -0.0106,-0.0107 -0.22725,0.12649 -0.48132,0.30477 -1.533107,1.07575 -1.66068,1.14874 -1.786978,1.02244 -0.08052,-0.0805 -0.05991,-0.18585 0.06562,-0.33538 0.159484,-0.18999 0.08752,-0.15531 -0.651025,0.31375 -0.807508,0.51287 -0.800362,0.50929 -0.904725,0.45343 -0.131844,-0.0706 -0.104753,-0.22759 0.06497,-0.37661 0.0823,-0.0723 0.130006,-0.13139 0.106009,-0.13139 -0.024,0 -0.327219,0.1524 -0.673829,0.33867 -0.346609,0.18627 -0.650128,0.33867 -0.674486,0.33867 -0.07014,0 -0.177334,-0.12581 -0.177334,-0.20813 0,-0.0413 0.07719,-0.19452 0.171543,-0.34049 0.09435,-0.14598 0.160982,-0.27597 0.148076,-0.28888 -0.01291,-0.0129 -0.311391,0.0675 -0.6633,0.17873 -0.528012,0.16686 -0.657469,0.19417 -0.740743,0.15622 -0.130121,-0.0593 -0.134478,-0.23943 -0.009,-0.37298 0.05054,-0.0538 0.08313,-0.10657 0.07241,-0.11728 -0.01071,-0.0107 -0.380673,0.18885 -0.822139,0.44347 -0.441465,0.25462 -0.841717,0.46333 -0.889448,0.46381 -0.109511,10e-4 -0.188383,-0.0762 -0.188383,-0.18449 0,-0.0472 0.143273,-0.23126 0.328083,-0.42155 0.180446,-0.1858 0.306591,-0.34514 0.280323,-0.3541 -0.02627,-0.009 -0.245343,0.0587 -0.486833,0.1503 -0.654435,0.2483 -0.755383,0.27088 -0.871298,0.19493 -0.113165,-0.0742 -0.123328,-0.17439 -0.03104,-0.30615 0.09506,-0.13571 0.03508,-0.12235 -0.535389,0.1192 -0.409309,0.17332 -0.519608,0.20477 -0.588604,0.16785 -0.08713,-0.0466 -0.10895,-0.15075 -0.05078,-0.2423 0.05548,-0.0873 1.792465,-0.8585 1.933668,-0.8585 0.0281,0 0.08619,0.0388 0.129096,0.0862 0.06904,0.0763 0.07178,0.10344 0.02384,0.23601 -0.02979,0.0824 -0.04706,0.15691 -0.03836,0.1656 0.0087,0.009 0.309299,-0.10703 0.668011,-0.25717 0.667365,-0.27932 0.793017,-0.31098 0.881821,-0.22217 0.07188,0.0719 0.06304,0.26734 -0.01501,0.33212 -0.07371,0.0612 -0.174402,0.23121 -0.118329,0.19983 0.01978,-0.0111 0.361903,-0.20388 0.760261,-0.42844 0.398357,-0.22457 0.773234,-0.40831 0.833059,-0.40831 0.114126,0 0.24182,0.0972 0.24182,0.1841 0,0.0777 -0.116884,0.23717 -0.352928,0.4816 -0.117486,0.12166 -0.202167,0.23265 -0.18818,0.24664 0.01399,0.014 0.212169,-0.0344 0.440403,-0.1075 0.325265,-0.10419 0.435659,-0.1235 0.51067,-0.0893 0.130001,0.0592 0.160125,0.21358 0.07939,0.4068 -0.03692,0.0884 -0.06037,0.16744 -0.0521,0.17571 0.0083,0.008 0.413332,-0.19656 0.900139,-0.45519 1.659853,-0.88183 1.864489,-0.97058 1.943437,-0.84284 0.01439,0.0233 0.05418,0.0423 0.08841,0.0423 0.07022,0 0.943092,-0.58143 1.266262,-0.84347 0.2875,-0.23312 0.48683,-0.22085 0.48683,0.03 0,0.0555 0.0143,0.094 0.0318,0.0857 0.0175,-0.008 0.10277,-0.0514 0.18957,-0.0956 0.153,-0.0779 0.16044,-0.078 0.24342,-0.003 0.13155,0.11905 0.10526,0.23176 -0.1482,0.63548 -0.12859,0.20481 -0.22682,0.37936 -0.21829,0.38789 0.009,0.009 0.28101,-0.16175 0.60552,-0.37839 0.5883,-0.39274 1.30056,-0.77195 1.5398,-0.8198 0.14827,-0.0297 0.33882,0.0757 0.33865,0.18722 -1.2e-4,0.0932 -0.23054,0.47564 -0.53266,0.88416 -0.12957,0.1752 -0.22529,0.32883 -0.21272,0.3414 0.0126,0.0126 0.22831,-0.10996 0.47942,-0.27228 0.56072,-0.36245 1.10246,-0.68528 1.40206,-0.8355 0.21179,-0.10618 0.23219,-0.10906 0.32809,-0.0462 0.0604,0.0395 0.10226,0.10798 0.10226,0.16703 0,0.12894 -0.2363,0.47907 -0.71687,1.06219 -0.34327,0.41652 -0.44774,0.56979 -0.35205,0.51647 0.0175,-0.01 0.26035,-0.15142 0.53975,-0.31485 0.68735,-0.40208 1.52134,-0.81546 1.64516,-0.81546 0.0557,0 0.12502,0.0286 0.15401,0.0635 0.0769,0.0927 0.10872,0.0824 0.37363,-0.12036 0.32085,-0.24559 1.4023,-0.98883 1.7308,-1.18951 0.19624,-0.11988 0.29005,-0.15383 0.36978,-0.13382 0.14473,0.0363 0.18573,0.20837 0.0888,0.37251 -0.10006,0.16939 -0.0673,0.1815 0.10637,0.0393 0.43323,-0.35458 1.74022,-1.31766 1.78818,-1.31766 0.10475,0 0.20972,0.11214 0.20972,0.22404 0,0.1179 -0.22064,0.44481 -0.81514,1.20776 -0.18727,0.24034 -0.37337,0.48725 -0.41355,0.5487 -0.0881,0.13472 -0.0524,0.11724 0.28677,-0.1402 0.31022,-0.2355 1.25238,-0.86638 1.45136,-0.97185 0.1658,-0.0879 0.25238,-0.0701 0.34063,0.0697 0.0656,0.10401 0.005,0.24878 -0.29387,0.70741 -0.15493,0.23738 -0.2744,0.43879 -0.26549,0.44758 0.009,0.009 0.31148,-0.2119 0.67237,-0.49045 1.10203,-0.85057 1.40851,-1.03452 1.5623,-0.93768 0.16906,0.10644 0.11784,0.27675 -0.25201,0.83791 -0.16447,0.24955 -0.29069,0.46207 -0.28049,0.47227 0.0102,0.0102 0.28667,-0.18171 0.61439,-0.42646 0.67896,-0.5071 1.12866,-0.80898 1.26406,-0.84856 0.0647,-0.0189 0.12094,6.4e-4 0.18433,0.064 0.12917,0.12917 0.0908,0.26446 -0.23293,0.82076 -0.14939,0.25674 -0.26564,0.47278 -0.25832,0.4801 0.007,0.007 0.30721,-0.1686 0.66644,-0.39091 0.35924,-0.22231 0.69443,-0.4042 0.74488,-0.4042 0.1212,0 0.23715,0.17777 0.19747,0.30277 l -0.0302,0.0953 0.12197,-0.0793 c 0.0671,-0.0436 0.2458,-0.17769 0.39714,-0.29791 0.39534,-0.31405 0.44885,-0.33787 0.57434,-0.25564 0.10951,0.0717 0.1309,0.18828 0.0592,0.32231 -0.0627,0.11709 -0.0258,0.1048 0.32571,-0.10862 0.17258,-0.10477 0.35692,-0.1905 0.40965,-0.1905 0.11538,0 0.19746,0.0739 0.19746,0.1778 0,0.0419 0.0106,0.0762 0.0235,0.0762 0.0129,0 0.14982,-0.0762 0.30424,-0.16933 0.31809,-0.19184 0.38406,-0.20283 0.52483,-0.0874 l 0.0999,0.082 0.34885,-0.1878 c 0.19187,-0.1033 0.37652,-0.18781 0.41035,-0.18781 0.0818,0 0.1933,0.16415 0.1933,0.28459 0,0.053 0.007,0.0964 0.015,0.0964 0.008,0 0.24575,-0.10477 0.52781,-0.23283 0.28206,-0.12806 0.56921,-0.23284 0.63811,-0.23284 0.14192,0 0.30076,0.16511 0.30076,0.31263 0,0.0941 0.25242,0.32659 0.39696,0.36567 0.045,0.0122 0.10261,0.055 0.12798,0.0952 0.0773,0.1226 -0.0195,0.21954 -0.23294,0.2332 -0.15847,0.0101 -0.21881,-0.0119 -0.40555,-0.14817 -0.12067,-0.088 -0.23874,-0.21246 -0.26239,-0.27649 -0.0236,-0.064 -0.0678,-0.11654 -0.0981,-0.11668 -0.0303,-1.3e-4 -0.33577,0.13562 -0.67879,0.30169 -0.6079,0.29431 -0.62638,0.30018 -0.73025,0.23212 -0.0744,-0.0487 -0.10658,-0.10791 -0.10658,-0.19586 0,-0.0693 -0.008,-0.12602 -0.0187,-0.12602 -0.0103,0 -0.088,0.0409 -0.17262,0.0908 -0.28984,0.17101 -0.44991,0.20654 -0.58122,0.12902 -0.1402,-0.0828 -0.16915,-0.0688 -0.80899,0.39065 -0.55172,0.39615 -0.57621,0.40918 -0.67239,0.35771 -0.11959,-0.064 -0.13913,-0.16433 -0.0592,-0.30369 0.0397,-0.0691 0.0639,-0.13381 0.0539,-0.14385 -0.01,-0.01 -0.18945,0.0783 -0.39871,0.19624 -0.42046,0.23702 -0.52416,0.25787 -0.61776,0.12424 -0.0348,-0.0496 -0.0882,-0.08 -0.11882,-0.0674 -0.0306,0.0126 -0.35089,0.25279 -0.71178,0.53389 -0.637,0.49614 -0.77432,0.56819 -0.88053,0.46197 -0.0972,-0.0972 -0.0493,-0.21876 0.19539,-0.49588 0.27613,-0.31272 0.32666,-0.38465 0.2702,-0.38465 -0.0214,0 -0.33764,0.1905 -0.70271,0.42333 -0.36508,0.23284 -0.6973,0.42334 -0.73827,0.42334 -0.10051,0 -0.17608,-0.0822 -0.17608,-0.19153 0,-0.0495 0.10546,-0.23089 0.23436,-0.40319 0.28327,-0.37862 0.62895,-0.92675 0.60167,-0.95403 -0.018,-0.018 -1.72332,1.25498 -2.48219,1.85278 -0.17796,0.14018 -0.35515,0.2463 -0.41127,0.2463 -0.0915,0 -0.18624,-0.10553 -0.18624,-0.20737 0,-0.024 0.13458,-0.19192 0.29907,-0.3732 0.34074,-0.37554 1.16308,-1.44273 1.13406,-1.47175 -0.0335,-0.0335 -1.87584,1.40956 -2.63293,2.0624 -0.34246,0.2953 -0.43982,0.33391 -0.55401,0.21973 -0.10859,-0.1086 -0.0801,-0.17638 0.19982,-0.4749 0.46512,-0.49608 1.33645,-1.63756 1.28743,-1.68659 -0.0451,-0.0451 -1.83266,1.29016 -2.52744,1.8879 -0.47731,0.41065 -0.50139,0.42526 -0.62441,0.37881 -0.1842,-0.0696 -0.12364,-0.23196 0.23389,-0.62727 0.68927,-0.76211 1.76293,-2.0748 1.72666,-2.11106 -0.0102,-0.0102 -0.13885,0.0729 -0.2858,0.18466 -0.4592,0.34943 -2.23755,1.80055 -2.63252,2.14814 -0.47196,0.41533 -0.55005,0.45475 -0.66771,0.33709 -0.12645,-0.12645 -0.0769,-0.2241 0.26903,-0.53025 0.33092,-0.29286 1.2612,-1.29078 1.2612,-1.3529 0,-0.0654 -0.22032,0.0838 -1.15677,0.78337 -0.53879,0.4025 -1.00062,0.78376 -1.15765,0.95567 -0.45793,0.50136 -1.33646,1.18985 -1.51828,1.18985 -0.0269,0 -0.0804,-0.0348 -0.11891,-0.0774 z m -8.240395,-5.3886 c -0.975048,-0.24637 -2.94155,-0.87521 -3.168466,-1.0132 -0.19829,-0.12059 -0.28338,-0.27381 -0.224196,-0.4037 0.10419,-0.22867 1.056788,-1.63656 1.492262,-2.20547 l 0.459689,-0.60056 -0.246427,-0.24642 c -0.339716,-0.33972 -0.445501,-0.6144 -0.445187,-1.15597 2.12e-4,-0.33549 0.01961,-0.45367 0.117098,-0.71282 0.06427,-0.17086 0.107112,-0.32041 0.09519,-0.33233 -0.01192,-0.0119 -0.208673,0.0446 -0.437234,0.12551 -0.57269,0.20282 -0.988281,0.28989 -1.388283,0.29085 -1.149392,0.003 -1.862594,-0.56537 -2.080366,-1.65721 -0.06289,-0.31534 -0.06548,-0.42411 -0.02089,-0.87957 0.109824,-1.12187 0.414569,-1.92768 0.92779,-2.45326 0.161703,-0.1656 0.399425,-0.36058 0.528269,-0.4333 l 0.234261,-0.13221 -0.514674,-0.51675 c -0.28307,-0.28421 -0.587581,-0.62382 -0.676691,-0.75469 -0.381058,-0.55964 -0.465455,-1.15835 -0.257065,-1.82362 0.348625,-1.11297 0.853133,-1.50194 2.461666,-1.89791 0.09895,-0.0244 0.179917,-0.0632 0.179917,-0.0864 0,-0.0232 -0.04532,-0.13196 -0.100711,-0.24178 -0.314896,-0.62434 -0.502975,-1.56411 -0.41177,-2.05749 0.09574,-0.51791 0.404428,-1.10223 0.748566,-1.41697 0.236032,-0.21586 0.915749,-0.61119 1.292677,-0.75182 0.390698,-0.14577 0.788754,-0.20678 1.328738,-0.20367 0.711666,0.004 1.3116,0.16298 1.763361,0.467 0.119348,0.0803 0.226446,0.13657 0.237996,0.12502 0.01155,-0.0115 -0.0016,-0.13608 -0.02931,-0.27674 -0.06686,-0.33985 -0.06928,-0.86597 -0.005,-1.09975 0.07988,-0.29074 0.408552,-0.91482 0.58417,-1.10921 0.08673,-0.096 0.225206,-0.21717 0.307719,-0.26926 0.228164,-0.14403 0.903416,-0.38317 1.353286,-0.47927 0.63754,-0.13618 0.87212,-0.15024 1.20607,-0.0723 0.4796,0.11197 1.23235,0.55852 1.65654,0.98272 0.12862,0.12862 0.24097,0.22674 0.24965,0.21805 0.009,-0.009 0.0472,-0.16764 0.0855,-0.35324 0.0861,-0.417 0.13777,-0.54257 0.35123,-0.85379 0.25847,-0.37685 0.82747,-0.87854 1.33118,-1.17374 0.28722,-0.16832 1.15622,-0.43715 1.64462,-0.50876 0.86601,-0.12699 1.40336,-0.0654 2.02301,0.23169 0.93282,0.44731 1.51087,1.03935 1.82768,1.87191 0.0509,0.13388 0.10773,0.24342 0.1262,0.24342 0.0185,0 0.12388,-0.15181 0.23426,-0.33736 0.37526,-0.63087 0.7453,-0.90304 1.58308,-1.1644 0.80646,-0.25159 1.66745,-0.29068 2.3267,-0.10564 0.67653,0.18989 1.40848,0.67452 1.82672,1.20949 0.3981,0.5092 0.54558,0.93993 0.54558,1.59347 0,0.30604 0.0148,0.42144 0.0561,0.43728 0.0308,0.0118 0.14936,-0.0185 0.26339,-0.0673 0.52574,-0.22537 1.85356,-0.27695 2.36402,-0.0918 0.31287,0.11346 0.74047,0.3898 0.93313,0.60305 0.41339,0.45758 0.5237,1.09094 0.45302,2.60112 -0.0343,0.73357 -0.0547,0.89385 -0.15272,1.19988 -0.0622,0.19427 -0.10059,0.36572 -0.0853,0.381 0.0153,0.0153 0.15479,0.0282 0.31001,0.0287 0.32591,0.001 0.58811,0.10744 0.67595,0.27425 0.086,0.16328 0.0358,1.09734 -0.091,1.69333 -0.14976,0.70395 -0.25034,0.94336 -0.47534,1.13143 -0.10297,0.0861 -0.18722,0.18793 -0.18722,0.22635 0,0.0384 0.0564,0.19427 0.12537,0.34634 0.069,0.15207 0.19196,0.50237 0.27336,0.77844 0.40812,1.3842 0.42087,1.92687 0.065,2.76677 -0.25491,0.60165 -0.78096,1.26649 -1.22045,1.54245 -0.27642,0.17357 -0.8207,0.39638 -1.28803,0.52728 -0.2282,0.0639 -0.41751,0.13389 -0.42071,0.15551 -0.0109,0.0738 0.34206,0.3048 0.6314,0.41322 0.37812,0.14169 0.56836,0.18841 0.90519,0.2223 l 0.27764,0.0279 0.0934,-0.3687 c 0.16804,-0.66363 0.4623,-1.14179 0.94925,-1.54248 0.52013,-0.42799 0.90776,-0.53154 1.13586,-0.30344 0.11635,0.11634 0.12375,0.1442 0.12375,0.46567 0,0.19002 0.018,0.34192 0.0406,0.34192 0.0223,0 0.18207,-0.021 0.35496,-0.0468 0.26308,-0.0391 0.35267,-0.0356 0.54925,0.0215 0.40557,0.1179 0.62152,0.37528 0.62152,0.74077 0,0.3389 -0.13896,0.53791 -0.48677,0.69714 -0.21243,0.0973 -0.21875,0.10548 -0.29353,0.38174 -0.14519,0.53639 -0.55965,1.0263 -0.97178,1.14869 -0.3725,0.11062 -0.69169,0.0838 -1.03252,-0.0867 -0.36021,-0.18021 -0.76088,-0.55362 -0.91019,-0.84827 l -0.10845,-0.21401 -0.38482,-0.0512 c -0.42624,-0.0567 -0.9733,-0.21596 -1.28734,-0.37466 -0.23401,-0.11825 -0.56268,-0.40579 -0.60067,-0.52549 -0.0213,-0.0671 -0.0664,-0.0807 -0.2662,-0.0802 -0.44549,0.001 -0.41816,-0.041 -0.44943,0.69109 -0.0151,0.35301 -0.0258,0.71803 -0.0237,0.81116 0.002,0.0931 0.008,0.37835 0.0123,0.63382 l 0.009,0.46448 0.55034,0.004 c 0.45631,0.003 0.59811,0.0203 0.83002,0.1004 0.29196,0.10082 0.62794,0.32704 0.76895,0.51773 0.12303,0.16639 0.13926,0.45068 0.0352,0.61637 -0.12744,0.20291 -0.26468,0.27144 -0.63937,0.31927 -0.29515,0.0377 -0.34204,0.0552 -0.35677,0.13308 -0.1277,0.67535 -0.23539,0.91556 -0.52853,1.17885 -0.42623,0.38282 -1.01474,0.45456 -1.72821,0.21067 -0.21507,-0.0735 -0.49027,-0.18396 -0.61155,-0.24541 -0.28806,-0.14598 -0.68911,-0.53041 -0.85049,-0.81528 l -0.12834,-0.22653 -1.46462,0.0299 c -1.57331,0.0321 -1.79803,0.0174 -2.66357,-0.17461 l -0.47927,-0.10632 -0.23278,0.17575 c -0.54677,0.41282 -1.17143,0.58219 -1.87633,0.50874 -1.17439,-0.12236 -2.03031,-0.63322 -2.51164,-1.4991 -0.11163,-0.20081 -0.21641,-0.36489 -0.23284,-0.36461 -0.0164,2.9e-4 -0.0906,0.11118 -0.16492,0.24644 -0.45195,0.823 -1.17263,1.42435 -2.04156,1.70351 -0.8132,0.26125 -1.8818,0.32695 -2.67821,0.16465 l -0.42312,-0.0862 -0.493698,0.43816 c -0.718085,0.63731 -1.845208,1.62865 -2.119309,1.86401 -0.286689,0.24616 -0.88201,0.64993 -0.999051,0.6776 -0.04657,0.011 -0.303741,-0.0353 -0.5715,-0.10299 z m 0.960874,-0.95807 c 0.822006,-0.70277 1.803242,-1.70802 1.71779,-1.75982 -0.01806,-0.011 -0.290005,-0.0519 -0.60433,-0.0909 -0.575749,-0.0716 -1.558593,-0.26342 -1.989667,-0.38842 -0.284008,-0.0823 -0.502095,-0.18836 -0.791412,-0.38469 -0.128175,-0.087 -0.247429,-0.13868 -0.285875,-0.12392 -0.03628,0.0139 -0.172101,0.18984 -0.301825,0.39092 -0.129723,0.20109 -0.346767,0.50171 -0.482319,0.66804 -0.285166,0.34991 -0.711519,1.1609 -0.626535,1.19176 0.02959,0.0108 0.196674,0.0488 0.371299,0.0846 0.174625,0.0358 0.403225,0.0928 0.508,0.12664 0.104775,0.0339 0.43815,0.10097 0.740834,0.14908 0.564724,0.0897 1.176453,0.23085 1.290457,0.29765 0.123976,0.0727 0.220463,0.0384 0.453583,-0.16088 z m 5.043071,-2.4675 c 0.48816,-0.0612 1.14716,-0.32287 1.56297,-0.62059 0.65125,-0.46629 1.03278,-0.78582 1.24483,-1.04253 0.3042,-0.36828 0.56694,-0.57897 0.72199,-0.57897 0.10213,0 0.20531,0.0759 0.53514,0.39388 0.42412,0.4088 0.94349,0.82129 1.28223,1.01835 0.10796,0.0628 0.32703,0.14189 0.48684,0.17574 0.3137,0.0665 1.10216,0.084 1.19282,0.0265 0.0374,-0.0237 -0.0593,-0.0806 -0.29634,-0.17409 -1.75421,-0.69207 -3.09132,-1.8708 -3.50673,-3.09136 -0.12988,-0.38159 -0.16708,-1.53108 -0.068,-2.10093 0.0968,-0.55694 0.32829,-1.22556 0.61651,-1.78094 0.20094,-0.38722 0.23821,-0.48825 0.18728,-0.50779 -0.0907,-0.0348 -0.76903,0.015 -0.95417,0.07 -0.3621,0.10768 -0.75431,0.48215 -0.75431,0.72018 0,0.15385 -0.18825,0.33296 -0.28548,0.27163 -0.1919,-0.12105 -0.1581,-0.50632 0.0749,-0.85359 0.27995,-0.41726 0.69617,-0.61677 1.40433,-0.67318 l 0.32592,-0.026 -0.0251,-0.26935 c -0.0234,-0.25012 -0.0157,-0.28464 0.10799,-0.48354 0.0732,-0.11781 0.13315,-0.24476 0.13315,-0.28213 0,-0.0999 -0.12679,-0.22277 -0.22997,-0.22277 -0.11901,0 -0.27803,-0.11447 -0.27803,-0.20015 0,-0.33703 0.69899,-0.27772 0.87718,0.0744 0.0771,0.15242 0.065,0.44759 -0.0311,0.75392 -0.0809,0.25809 -0.11067,0.51481 -0.0597,0.51481 0.0134,0 0.0805,-0.056 0.14895,-0.12452 0.14587,-0.14588 0.38742,-0.19613 0.73435,-0.15278 0.19856,0.0248 0.24177,0.0168 0.31724,-0.0587 0.10177,-0.10177 0.11064,-0.24355 0.0225,-0.36005 -0.0836,-0.11059 -0.0783,-0.17687 0.0225,-0.27766 0.11744,-0.11743 0.19995,-0.10616 0.34285,0.0468 0.10429,0.11165 0.12282,0.16613 0.12282,0.3612 0,0.29964 -0.0809,0.4839 -0.27833,0.63416 -0.1494,0.11369 -0.18647,0.122 -0.54424,0.122 -0.41527,0 -0.48976,0.0233 -0.48976,0.15283 0,0.12494 0.25899,0.21572 0.63473,0.22247 0.27641,0.005 0.34613,-0.01 0.5357,-0.1151 0.28456,-0.15772 0.51845,-0.40048 0.6499,-0.67454 0.11579,-0.24142 0.23333,-0.29878 0.35762,-0.17449 0.20678,0.20678 -0.31257,0.94314 -0.85155,1.20735 -0.15153,0.0743 -0.29512,0.10427 -0.55382,0.11564 -0.19209,0.008 -0.34925,0.0301 -0.34925,0.0482 0,0.0181 0.0286,0.10121 0.0635,0.1848 0.15176,0.36323 0.0188,0.71999 -0.33368,0.89566 -0.24365,0.12142 -0.41459,0.13455 -0.50996,0.0392 -0.12864,-0.12864 -0.0354,-0.35681 0.1458,-0.35681 0.0436,0 0.12801,-0.0429 0.18756,-0.0952 0.10745,-0.0945 0.1078,-0.097 0.0465,-0.32508 -0.034,-0.1264 -0.10177,-0.26927 -0.15069,-0.3175 -0.0888,-0.0875 -0.089,-0.0875 -0.15349,-0.003 -0.252,0.33056 -0.6532,1.36887 -0.75922,1.96488 -0.0782,0.43981 -0.0876,1.29665 -0.0179,1.63832 0.15939,0.78162 0.91578,1.70306 1.94185,2.3656 0.53407,0.34485 1.73862,0.87408 2.13634,0.93862 0.12878,0.0209 0.16831,-10e-4 0.41566,-0.23261 0.15557,-0.14552 0.41166,-0.46251 0.59436,-0.73568 0.18149,-0.27136 0.37182,-0.50718 0.43793,-0.54255 0.24592,-0.13162 0.46892,-0.085 0.95113,0.19886 0.24427,0.14379 0.69248,0.36726 0.99602,0.49659 0.65954,0.28102 0.954,0.33063 1.70803,0.28777 l 0.52426,-0.0298 0.20325,-0.39469 c 0.20414,-0.3964 0.49091,-0.81324 0.65164,-0.9472 0.16241,-0.13537 0.48606,-0.29195 0.66719,-0.32279 l 0.18108,-0.0308 0.0212,-0.74706 c 0.0205,-0.72391 0.0245,-0.75062 0.127,-0.86215 0.14724,-0.16012 0.55968,-0.33989 1.00207,-0.43677 0.8838,-0.19353 2.12924,-0.82995 2.4292,-1.24133 0.47473,-0.65104 0.51721,-1.1697 0.20906,-2.55251 -0.0674,-0.30268 -0.16471,-0.74587 -0.21615,-0.98487 l -0.0935,-0.43453 -1.16791,0.0269 c -1.66976,0.0384 -2.06165,-0.0384 -2.28975,-0.44898 -0.097,-0.17466 -0.10533,-0.23098 -0.0998,-0.67733 0.003,-0.26776 0.0228,-0.69314 0.0434,-0.94528 0.0206,-0.25215 0.0214,-0.46835 0.002,-0.48045 -0.0196,-0.0121 -0.10104,-0.01 -0.18102,0.005 l -0.14542,0.0273 v 0.48186 c 0,0.95062 -0.16013,1.53283 -0.49102,1.78521 -0.26413,0.20146 -1.21501,0.37952 -2.55698,0.47882 -1.19509,0.0884 -1.69572,0.0513 -1.99941,-0.14835 -0.34235,-0.22503 -0.37618,-0.44497 -0.26663,-1.73319 0.039,-0.45917 0.0465,-0.73401 0.0206,-0.75993 -0.025,-0.0249 -0.68648,-0.0361 -1.71557,-0.029 -1.80985,0.0125 -1.93837,0.026 -2.38567,0.25021 -0.34016,0.17053 -0.4437,0.29456 -0.52584,0.62991 -0.0805,0.32868 -0.17724,0.48347 -0.33786,0.54069 -0.13764,0.049 -0.29565,-0.0263 -0.36238,-0.17275 -0.0727,-0.1595 0.0449,-0.85818 0.18457,-1.09644 0.18419,-0.3143 0.66396,-0.62649 1.27107,-0.82712 l 0.29633,-0.0979 3.95817,-0.006 c 2.91454,-0.004 4.08652,-0.0204 4.445,-0.0605 0.27994,-0.0314 1.0985,-0.0584 1.92616,-0.0637 0.79164,-0.005 1.57534,-0.0239 1.74157,-0.0419 l 0.30224,-0.0327 0.0885,-0.30191 c 0.21483,-0.73267 0.2677,-1.02737 0.28969,-1.61502 0.0139,-0.37196 0.004,-0.68108 -0.0265,-0.82825 -0.23781,-1.14549 -1.32489,-1.66106 -2.62534,-1.24512 -0.41431,0.13251 -1.01025,0.38579 -1.10699,0.47048 -0.17045,0.14921 -0.46233,-0.0156 -0.46233,-0.26099 0,-0.0745 0.0406,-0.22726 0.0903,-0.33953 0.0823,-0.18606 0.0882,-0.25489 0.0671,-0.77796 -0.0334,-0.82721 -0.1071,-1.02084 -0.55675,-1.46285 -0.421,-0.41385 -0.70817,-0.5881 -1.24323,-0.75435 -0.35552,-0.11047 -0.4759,-0.12765 -0.89743,-0.12808 -0.43804,-4.4e-4 -0.52681,0.0132 -0.88563,0.13567 -0.67838,0.23159 -1.01666,0.43374 -1.39534,0.83379 -0.2621,0.27689 -0.38435,0.45173 -0.56661,0.81035 -0.12782,0.25151 -0.24481,0.54363 -0.25996,0.64917 -0.0599,0.41723 -0.27557,0.57266 -0.51201,0.36903 -0.11827,-0.10185 -0.13939,-0.20352 -0.22755,-1.0952 -0.0472,-0.47722 -0.1208,-0.64491 -0.43317,-0.98669 -0.60586,-0.66291 -1.35334,-0.98169 -2.5354,-1.08128 -1.03239,-0.087 -1.83943,0.1399 -2.43556,0.68473 -0.4568,0.41749 -0.58226,0.73849 -0.65698,1.68096 -0.0533,0.67229 -0.0965,0.83931 -0.23294,0.90149 -0.17305,0.0789 -0.34469,-0.0302 -0.54885,-0.34871 -0.38234,-0.59649 -0.89663,-1.04101 -1.58745,-1.37207 -0.40514,-0.19416 -0.67086,-0.19907 -1.38155,-0.0255 -1.027472,0.2509 -1.166807,0.34595 -1.498063,1.02187 -0.171076,0.34909 -0.174018,0.36269 -0.154798,0.71568 0.01647,0.30256 0.06186,0.48114 0.285135,1.12184 0.314938,0.90374 0.345706,1.08132 0.204492,1.18023 -0.22337,0.15645 -0.258729,0.13538 -1.223366,-0.72908 -0.577784,-0.51779 -0.80808,-0.62994 -1.482149,-0.72183 -0.680186,-0.0927 -1.348429,0.0609 -2.093756,0.48123 -0.399145,0.22511 -0.605662,0.43855 -0.793811,0.82043 -0.119773,0.2431 -0.139441,0.33057 -0.152393,0.67773 -0.02371,0.63558 0.142927,1.18986 0.569875,1.89553 0.207833,0.34351 0.234574,0.41231 0.210389,0.54123 -0.03604,0.19212 -0.199703,0.32069 -0.408205,0.32069 -0.481897,0 -1.38784,0.2058 -1.779399,0.40422 -0.270844,0.13725 -0.481872,0.36282 -0.629702,0.67309 -0.261223,0.54827 -0.275761,0.93617 -0.05193,1.38546 0.161622,0.32442 0.91583,1.12097 1.298885,1.37181 0.293231,0.19202 0.36735,0.33146 0.272974,0.51354 -0.03338,0.0644 -0.312848,0.36998 -0.621047,0.67908 -0.3082,0.3091 -0.599806,0.63932 -0.648016,0.73382 -0.114363,0.22417 -0.315002,1.00154 -0.403322,1.56265 -0.143854,0.91394 -0.0055,1.38085 0.482208,1.62748 0.172158,0.0871 0.706894,0.19285 0.974753,0.19285 0.256754,0 1.442965,-0.33795 1.855963,-0.52877 0.340565,-0.15735 0.435172,-0.17496 0.565422,-0.10526 0.175315,0.0938 0.178839,0.17894 0.03373,0.81466 -0.156012,0.6835 -0.190869,1.37421 -0.08234,1.63152 0.08929,0.21168 0.3786,0.33899 0.937118,0.41237 0.600949,0.079 0.973376,0.0207 1.478589,-0.23144 0.461353,-0.23021 0.666491,-0.38151 0.870741,-0.64222 0.394846,-0.50397 0.859211,-0.49137 0.955611,0.0259 0.03491,0.18735 0.138929,0.42349 0.596281,1.35369 0.211131,0.42942 0.367551,0.5504 0.924491,0.71497 0.40247,0.11893 0.81393,0.13867 1.38857,0.0666 z m 13.85039,-8.04598 c -0.56646,-0.0465 -0.77741,-0.0971 -1.04846,-0.25196 -0.2146,-0.12256 -0.58347,-0.51828 -0.70851,-0.76006 -0.14456,-0.27956 -0.0144,-0.63475 0.23258,-0.63475 0.18848,0 0.25164,0.0403 0.34269,0.21879 0.14354,0.28136 0.36248,0.48892 0.60226,0.57097 0.17033,0.0583 0.33358,0.0731 0.72761,0.0661 0.53299,-0.01 2.28999,-0.12579 2.38159,-0.15761 0.0293,-0.0102 0.22574,-0.0212 0.43653,-0.0246 0.34587,-0.006 0.39335,0.003 0.48656,0.0909 0.2723,0.25581 0.19447,0.61856 -0.17202,0.80181 -0.21128,0.10564 -0.21402,0.10584 -1.524,0.11136 -0.72178,0.003 -1.51236,-0.0109 -1.75683,-0.0309 z m -0.89958,7.55855 c 0.0291,-0.009 0.0529,-0.0446 0.0529,-0.0792 0,-0.073 -0.068,-0.0857 -0.80578,-0.14982 -0.68472,-0.0596 -1.38017,-0.21799 -1.75478,-0.39975 -0.16331,-0.0792 -0.46839,-0.28855 -0.67794,-0.46513 -0.20955,-0.17658 -0.39475,-0.32128 -0.41157,-0.32155 -0.0168,-2.6e-4 -0.0623,0.10904 -0.10116,0.24292 -0.0909,0.31329 -0.17013,0.48707 -0.34837,0.76376 -0.0794,0.12321 -0.13588,0.23245 -0.12557,0.24276 0.0308,0.0308 0.65526,0.15237 0.95857,0.18666 0.27224,0.0308 3.10606,0.0126 3.21369,-0.0206 z m -1.20265,-10.73991 c 0.17696,-0.21641 0.72479,-1.11251 0.84164,-1.37666 0.0741,-0.16751 0.0764,-0.19608 0.0204,-0.25211 -0.0427,-0.0427 -0.0853,-0.0508 -0.13127,-0.0251 -0.10103,0.0565 -0.753,0.97907 -1.10311,1.56087 -0.0697,0.11586 -0.0739,0.14817 -0.0266,0.20521 0.0999,0.12032 0.24133,0.0805 0.39892,-0.11222 z m 5.37668,-0.0742 c 0.10554,-0.12543 0.58741,-0.9092 0.72088,-1.17252 0.0937,-0.1849 0.0875,-0.3383 -0.016,-0.39368 -0.13782,-0.0738 -0.23108,0.0124 -0.44595,0.41226 -0.10964,0.204 -0.3018,0.52544 -0.42703,0.71431 -0.23671,0.35703 -0.26201,0.43083 -0.17688,0.51596 0.088,0.0881 0.23378,0.0558 0.34498,-0.0763 z m -5.99481,-0.22212 c 0.1161,-0.1251 0.66871,-1.00072 0.70518,-1.11737 0.0573,-0.18317 -0.1914,-0.30008 -0.32465,-0.15263 -0.1721,0.19044 -0.7505,1.09582 -0.7505,1.17478 0,0.19875 0.22108,0.25565 0.36997,0.0952 z m 5.43664,-0.23283 c 0.0651,-0.0773 0.35429,-0.56652 0.47566,-0.80472 0.0807,-0.15831 0.034,-0.30653 -0.0965,-0.30653 -0.0949,0 -0.14528,0.0572 -0.4442,0.50476 -0.22485,0.33661 -0.29811,0.56421 -0.20998,0.65235 0.0542,0.0542 0.21313,0.0277 0.27506,-0.0459 z"
         id="path411" />
      <path
         style="fill:#9b7292;stroke-width:0.0423333"
         d="m 104.39544,136.9584 c -0.0385,-0.0426 -0.0701,-0.10016 -0.0701,-0.12795 0,-0.0891 0.34444,-0.42828 0.93133,-0.91713 0.55539,-0.46261 0.89557,-0.78251 0.83212,-0.78251 -0.0848,0 -1.63126,0.89074 -2.55295,1.47047 -0.25584,0.16092 -0.49762,0.30504 -0.53729,0.32027 -0.0741,0.0284 -0.23954,-0.0989 -0.23954,-0.1843 0,-0.0245 0.25985,-0.29597 0.57744,-0.60325 0.54604,-0.5283 1.41222,-1.48865 1.41222,-1.56575 0,-0.0195 -0.0802,0.009 -0.17824,0.0624 -0.18695,0.10274 -2.14089,1.39595 -2.51577,1.66504 -0.23263,0.16699 -0.36891,0.17346 -0.41767,0.0199 -0.0364,-0.11471 0.0305,-0.21775 0.2733,-0.42105 0.3158,-0.26441 1.48372,-1.6724 1.48372,-1.78872 0,-0.17883 -2.1859,1.31542 -2.99334,2.04621 -0.30235,0.27365 -0.39973,0.31263 -0.525863,0.21049 -0.12792,-0.10358 -0.07755,-0.21668 0.203433,-0.45672 0.30775,-0.26292 1.07335,-1.21117 1.02053,-1.26399 -0.0106,-0.0107 -0.22725,0.12649 -0.48132,0.30477 -1.533107,1.07575 -1.66068,1.14874 -1.786978,1.02244 -0.08052,-0.0805 -0.05991,-0.18585 0.06562,-0.33538 0.159484,-0.18999 0.08752,-0.15531 -0.651025,0.31375 -0.807508,0.51287 -0.800362,0.50929 -0.904725,0.45343 -0.131844,-0.0706 -0.104753,-0.22759 0.06497,-0.37661 0.0823,-0.0723 0.130006,-0.13139 0.106009,-0.13139 -0.024,0 -0.327219,0.1524 -0.673829,0.33867 -0.346609,0.18627 -0.650128,0.33867 -0.674486,0.33867 -0.07014,0 -0.177334,-0.12581 -0.177334,-0.20813 0,-0.0413 0.07719,-0.19452 0.171543,-0.34049 0.09435,-0.14598 0.160982,-0.27597 0.148076,-0.28888 -0.01291,-0.0129 -0.311391,0.0675 -0.6633,0.17873 -0.528012,0.16686 -0.657469,0.19417 -0.740743,0.15622 -0.130121,-0.0593 -0.134478,-0.23943 -0.009,-0.37298 0.05054,-0.0538 0.08313,-0.10657 0.07241,-0.11728 -0.01071,-0.0107 -0.380673,0.18885 -0.822139,0.44347 -0.441465,0.25462 -0.841717,0.46333 -0.889448,0.46381 -0.109511,10e-4 -0.188383,-0.0762 -0.188383,-0.18449 0,-0.0472 0.143273,-0.23126 0.328083,-0.42155 0.180446,-0.1858 0.306591,-0.34514 0.280323,-0.3541 -0.02627,-0.009 -0.245343,0.0587 -0.486833,0.1503 -0.654435,0.2483 -0.755383,0.27088 -0.871298,0.19493 -0.113165,-0.0742 -0.123328,-0.17439 -0.03104,-0.30615 0.09506,-0.13571 0.03508,-0.12235 -0.535389,0.1192 -0.409309,0.17332 -0.519608,0.20477 -0.588604,0.16785 -0.08713,-0.0466 -0.10895,-0.15075 -0.05078,-0.2423 0.05548,-0.0873 1.792465,-0.8585 1.933668,-0.8585 0.0281,0 0.08619,0.0388 0.129096,0.0862 0.06904,0.0763 0.07178,0.10344 0.02384,0.23601 -0.02979,0.0824 -0.04706,0.15691 -0.03836,0.1656 0.0087,0.009 0.309299,-0.10703 0.668011,-0.25717 0.667365,-0.27932 0.793017,-0.31098 0.881821,-0.22217 0.07188,0.0719 0.06304,0.26734 -0.01501,0.33212 -0.07371,0.0612 -0.174402,0.23121 -0.118329,0.19983 0.01978,-0.0111 0.361903,-0.20388 0.760261,-0.42844 0.398357,-0.22457 0.773234,-0.40831 0.833059,-0.40831 0.114126,0 0.24182,0.0972 0.24182,0.1841 0,0.0777 -0.116884,0.23717 -0.352928,0.4816 -0.117486,0.12166 -0.202167,0.23265 -0.18818,0.24664 0.01399,0.014 0.212169,-0.0344 0.440403,-0.1075 0.325265,-0.10419 0.435659,-0.1235 0.51067,-0.0893 0.130001,0.0592 0.160125,0.21358 0.07939,0.4068 -0.03692,0.0884 -0.06037,0.16744 -0.0521,0.17571 0.0083,0.008 0.413332,-0.19656 0.900139,-0.45519 1.659853,-0.88183 1.864489,-0.97058 1.943437,-0.84284 0.01439,0.0233 0.05418,0.0423 0.08841,0.0423 0.07022,0 0.943092,-0.58143 1.266262,-0.84347 0.2875,-0.23312 0.48683,-0.22085 0.48683,0.03 0,0.0555 0.0143,0.094 0.0318,0.0857 0.0175,-0.008 0.10277,-0.0514 0.18957,-0.0956 0.153,-0.0779 0.16044,-0.078 0.24342,-0.003 0.13155,0.11905 0.10526,0.23176 -0.1482,0.63548 -0.12859,0.20481 -0.22682,0.37936 -0.21829,0.38789 0.009,0.009 0.28101,-0.16175 0.60552,-0.37839 0.5883,-0.39274 1.30056,-0.77195 1.5398,-0.8198 0.14827,-0.0297 0.33882,0.0757 0.33865,0.18722 -1.2e-4,0.0932 -0.23054,0.47564 -0.53266,0.88416 -0.12957,0.1752 -0.22529,0.32883 -0.21272,0.3414 0.0126,0.0126 0.22831,-0.10996 0.47942,-0.27228 0.56072,-0.36245 1.10246,-0.68528 1.40206,-0.8355 0.21179,-0.10618 0.23219,-0.10906 0.32809,-0.0462 0.0604,0.0395 0.10226,0.10798 0.10226,0.16703 0,0.12894 -0.2363,0.47907 -0.71687,1.06219 -0.34327,0.41652 -0.44774,0.56979 -0.35205,0.51647 0.0175,-0.01 0.26035,-0.15142 0.53975,-0.31485 0.68735,-0.40208 1.52134,-0.81546 1.64516,-0.81546 0.0557,0 0.12502,0.0286 0.15401,0.0635 0.0769,0.0927 0.10872,0.0824 0.37363,-0.12036 0.32085,-0.24559 1.4023,-0.98883 1.7308,-1.18951 0.19624,-0.11988 0.29005,-0.15383 0.36978,-0.13382 0.14473,0.0363 0.18573,0.20837 0.0888,0.37251 -0.10006,0.16939 -0.0673,0.1815 0.10637,0.0393 0.43323,-0.35458 1.74022,-1.31766 1.78818,-1.31766 0.10475,0 0.20972,0.11214 0.20972,0.22404 0,0.1179 -0.22064,0.44481 -0.81514,1.20776 -0.18727,0.24034 -0.37337,0.48725 -0.41355,0.5487 -0.0881,0.13472 -0.0524,0.11724 0.28677,-0.1402 0.31022,-0.2355 1.25238,-0.86638 1.45136,-0.97185 0.1658,-0.0879 0.25238,-0.0701 0.34063,0.0697 0.0656,0.10401 0.005,0.24878 -0.29387,0.70741 -0.15493,0.23738 -0.2744,0.43879 -0.26549,0.44758 0.009,0.009 0.31148,-0.2119 0.67237,-0.49045 1.10203,-0.85057 1.40851,-1.03452 1.5623,-0.93768 0.16906,0.10644 0.11784,0.27675 -0.25201,0.83791 -0.16447,0.24955 -0.29069,0.46207 -0.28049,0.47227 0.0102,0.0102 0.28667,-0.18171 0.61439,-0.42646 0.67896,-0.5071 1.12866,-0.80898 1.26406,-0.84856 0.0647,-0.0189 0.12094,6.4e-4 0.18433,0.064 0.12917,0.12917 0.0908,0.26446 -0.23293,0.82076 -0.14939,0.25674 -0.26564,0.47278 -0.25832,0.4801 0.007,0.007 0.30721,-0.1686 0.66644,-0.39091 0.35924,-0.22231 0.69443,-0.4042 0.74488,-0.4042 0.1212,0 0.23715,0.17777 0.19747,0.30277 l -0.0302,0.0953 0.12197,-0.0793 c 0.0671,-0.0436 0.2458,-0.17769 0.39714,-0.29791 0.39534,-0.31405 0.44885,-0.33787 0.57434,-0.25564 0.10951,0.0717 0.1309,0.18828 0.0592,0.32231 -0.0627,0.11709 -0.0258,0.1048 0.32571,-0.10862 0.17258,-0.10477 0.35692,-0.1905 0.40965,-0.1905 0.11538,0 0.19746,0.0739 0.19746,0.1778 0,0.0419 0.0106,0.0762 0.0235,0.0762 0.0129,0 0.14982,-0.0762 0.30424,-0.16933 0.31809,-0.19184 0.38406,-0.20283 0.52483,-0.0874 l 0.0999,0.082 0.34885,-0.1878 c 0.19187,-0.1033 0.37652,-0.18781 0.41035,-0.18781 0.0818,0 0.1933,0.16415 0.1933,0.28459 0,0.053 0.007,0.0964 0.015,0.0964 0.008,0 0.24575,-0.10477 0.52781,-0.23283 0.28206,-0.12806 0.56921,-0.23284 0.63811,-0.23284 0.14192,0 0.30076,0.16511 0.30076,0.31263 0,0.0941 0.25242,0.32659 0.39696,0.36567 0.045,0.0122 0.10261,0.055 0.12798,0.0952 0.0773,0.1226 -0.0195,0.21954 -0.23294,0.2332 -0.15847,0.0101 -0.21881,-0.0119 -0.40555,-0.14817 -0.12067,-0.088 -0.23874,-0.21246 -0.26239,-0.27649 -0.0236,-0.064 -0.0678,-0.11654 -0.0981,-0.11668 -0.0303,-1.3e-4 -0.33577,0.13562 -0.67879,0.30169 -0.6079,0.29431 -0.62638,0.30018 -0.73025,0.23212 -0.0744,-0.0487 -0.10658,-0.10791 -0.10658,-0.19586 0,-0.0693 -0.008,-0.12602 -0.0187,-0.12602 -0.0103,0 -0.088,0.0409 -0.17262,0.0908 -0.28984,0.17101 -0.44991,0.20654 -0.58122,0.12902 -0.1402,-0.0828 -0.16915,-0.0688 -0.80899,0.39065 -0.55172,0.39615 -0.57621,0.40918 -0.67239,0.35771 -0.11959,-0.064 -0.13913,-0.16433 -0.0592,-0.30369 0.0397,-0.0691 0.0639,-0.13381 0.0539,-0.14385 -0.01,-0.01 -0.18945,0.0783 -0.39871,0.19624 -0.42046,0.23702 -0.52416,0.25787 -0.61776,0.12424 -0.0348,-0.0496 -0.0882,-0.08 -0.11882,-0.0674 -0.0306,0.0126 -0.35089,0.25279 -0.71178,0.53389 -0.637,0.49614 -0.77432,0.56819 -0.88053,0.46197 -0.0972,-0.0972 -0.0493,-0.21876 0.19539,-0.49588 0.27613,-0.31272 0.32666,-0.38465 0.2702,-0.38465 -0.0214,0 -0.33764,0.1905 -0.70271,0.42333 -0.36508,0.23284 -0.6973,0.42334 -0.73827,0.42334 -0.10051,0 -0.17608,-0.0822 -0.17608,-0.19153 0,-0.0495 0.10546,-0.23089 0.23436,-0.40319 0.28327,-0.37862 0.62895,-0.92675 0.60167,-0.95403 -0.018,-0.018 -1.72332,1.25498 -2.48219,1.85278 -0.17796,0.14018 -0.35515,0.2463 -0.41127,0.2463 -0.0915,0 -0.18624,-0.10553 -0.18624,-0.20737 0,-0.024 0.13458,-0.19192 0.29907,-0.3732 0.34074,-0.37554 1.16308,-1.44273 1.13406,-1.47175 -0.0335,-0.0335 -1.87584,1.40956 -2.63293,2.0624 -0.34246,0.2953 -0.43982,0.33391 -0.55401,0.21973 -0.10859,-0.1086 -0.0801,-0.17638 0.19982,-0.4749 0.46512,-0.49608 1.33645,-1.63756 1.28743,-1.68659 -0.0451,-0.0451 -1.83266,1.29016 -2.52744,1.8879 -0.47731,0.41065 -0.50139,0.42526 -0.62441,0.37881 -0.1842,-0.0696 -0.12364,-0.23196 0.23389,-0.62727 0.68927,-0.76211 1.76293,-2.0748 1.72666,-2.11106 -0.0102,-0.0102 -0.13885,0.0729 -0.2858,0.18466 -0.4592,0.34943 -2.23755,1.80055 -2.63252,2.14814 -0.47196,0.41533 -0.55005,0.45475 -0.66771,0.33709 -0.12645,-0.12645 -0.0769,-0.2241 0.26903,-0.53025 0.33092,-0.29286 1.2612,-1.29078 1.2612,-1.3529 0,-0.0654 -0.22032,0.0838 -1.15677,0.78337 -0.53879,0.4025 -1.00062,0.78376 -1.15765,0.95567 -0.45793,0.50136 -1.33646,1.18985 -1.51828,1.18985 -0.0269,0 -0.0804,-0.0348 -0.11891,-0.0774 z m -8.240395,-5.3886 c -0.975048,-0.24637 -2.94155,-0.87521 -3.168466,-1.0132 -0.19829,-0.12059 -0.28338,-0.27381 -0.224196,-0.4037 0.10419,-0.22867 1.056788,-1.63656 1.492262,-2.20547 l 0.459689,-0.60056 -0.246427,-0.24642 c -0.339716,-0.33972 -0.445501,-0.6144 -0.445187,-1.15597 2.12e-4,-0.33549 0.01961,-0.45367 0.117098,-0.71282 0.06427,-0.17086 0.107112,-0.32041 0.09519,-0.33233 -0.01192,-0.0119 -0.208673,0.0446 -0.437234,0.12551 -0.57269,0.20282 -0.988281,0.28989 -1.388283,0.29085 -1.149392,0.003 -1.862594,-0.56537 -2.080366,-1.65721 -0.06289,-0.31534 -0.06548,-0.42411 -0.02089,-0.87957 0.109824,-1.12187 0.414569,-1.92768 0.92779,-2.45326 0.161703,-0.1656 0.399425,-0.36058 0.528269,-0.4333 l 0.234261,-0.13221 -0.514674,-0.51675 c -0.28307,-0.28421 -0.587581,-0.62382 -0.676691,-0.75469 -0.381058,-0.55964 -0.465455,-1.15835 -0.257065,-1.82362 0.348625,-1.11297 0.853133,-1.50194 2.461666,-1.89791 0.09895,-0.0244 0.179917,-0.0632 0.179917,-0.0864 0,-0.0232 -0.04532,-0.13196 -0.100711,-0.24178 -0.314896,-0.62434 -0.502975,-1.56411 -0.41177,-2.05749 0.09574,-0.51791 0.404428,-1.10223 0.748566,-1.41697 0.236032,-0.21586 0.915749,-0.61119 1.292677,-0.75182 0.390698,-0.14577 0.788754,-0.20678 1.328738,-0.20367 0.711666,0.004 1.3116,0.16298 1.763361,0.467 0.119348,0.0803 0.226446,0.13657 0.237996,0.12502 0.01155,-0.0115 -0.0016,-0.13608 -0.02931,-0.27674 -0.06686,-0.33985 -0.06928,-0.86597 -0.005,-1.09975 0.07988,-0.29074 0.408552,-0.91482 0.58417,-1.10921 0.08673,-0.096 0.225206,-0.21717 0.307719,-0.26926 0.228164,-0.14403 0.903416,-0.38317 1.353286,-0.47927 0.63754,-0.13618 0.87212,-0.15024 1.20607,-0.0723 0.4796,0.11197 1.23235,0.55852 1.65654,0.98272 0.12862,0.12862 0.24097,0.22674 0.24965,0.21805 0.009,-0.009 0.0472,-0.16764 0.0855,-0.35324 0.0861,-0.417 0.13777,-0.54257 0.35123,-0.85379 0.25847,-0.37685 0.82747,-0.87854 1.33118,-1.17374 0.28722,-0.16832 1.15622,-0.43715 1.64462,-0.50876 0.86601,-0.12699 1.40336,-0.0654 2.02301,0.23169 0.93282,0.44731 1.51087,1.03935 1.82768,1.87191 0.0509,0.13388 0.10773,0.24342 0.1262,0.24342 0.0185,0 0.12388,-0.15181 0.23426,-0.33736 0.37526,-0.63087 0.7453,-0.90304 1.58308,-1.1644 0.80646,-0.25159 1.66745,-0.29068 2.3267,-0.10564 0.67653,0.18989 1.40848,0.67452 1.82672,1.20949 0.3981,0.5092 0.54558,0.93993 0.54558,1.59347 0,0.30604 0.0148,0.42144 0.0561,0.43728 0.0308,0.0118 0.14936,-0.0185 0.26339,-0.0673 0.52574,-0.22537 1.85356,-0.27695 2.36402,-0.0918 0.31287,0.11346 0.74047,0.3898 0.93313,0.60305 0.41339,0.45758 0.5237,1.09094 0.45302,2.60112 -0.0343,0.73357 -0.0547,0.89385 -0.15272,1.19988 -0.0622,0.19427 -0.10059,0.36572 -0.0853,0.381 0.0153,0.0153 0.15479,0.0282 0.31001,0.0287 0.32591,0.001 0.58811,0.10744 0.67595,0.27425 0.086,0.16328 0.0358,1.09734 -0.091,1.69333 -0.14976,0.70395 -0.25034,0.94336 -0.47534,1.13143 -0.10297,0.0861 -0.18722,0.18793 -0.18722,0.22635 0,0.0384 0.0564,0.19427 0.12537,0.34634 0.069,0.15207 0.19196,0.50237 0.27336,0.77844 0.40812,1.3842 0.42087,1.92687 0.065,2.76677 -0.25491,0.60165 -0.78096,1.26649 -1.22045,1.54245 -0.27642,0.17357 -0.8207,0.39638 -1.28803,0.52728 -0.2282,0.0639 -0.41751,0.13389 -0.42071,0.15551 -0.0109,0.0738 0.34206,0.3048 0.6314,0.41322 0.37812,0.14169 0.56836,0.18841 0.90519,0.2223 l 0.27764,0.0279 0.0934,-0.3687 c 0.16804,-0.66363 0.4623,-1.14179 0.94925,-1.54248 0.52013,-0.42799 0.90776,-0.53154 1.13586,-0.30344 0.11635,0.11634 0.12375,0.1442 0.12375,0.46567 0,0.19002 0.018,0.34192 0.0406,0.34192 0.0223,0 0.18207,-0.021 0.35496,-0.0468 0.26308,-0.0391 0.35267,-0.0356 0.54925,0.0215 0.40557,0.1179 0.62152,0.37528 0.62152,0.74077 0,0.3389 -0.13896,0.53791 -0.48677,0.69714 -0.21243,0.0973 -0.21875,0.10548 -0.29353,0.38174 -0.14519,0.53639 -0.55965,1.0263 -0.97178,1.14869 -0.3725,0.11062 -0.69169,0.0838 -1.03252,-0.0867 -0.36021,-0.18021 -0.76088,-0.55362 -0.91019,-0.84827 l -0.10845,-0.21401 -0.38482,-0.0512 c -0.42624,-0.0567 -0.9733,-0.21596 -1.28734,-0.37466 -0.23401,-0.11825 -0.56268,-0.40579 -0.60067,-0.52549 -0.0213,-0.0671 -0.0664,-0.0807 -0.2662,-0.0802 -0.44549,0.001 -0.41816,-0.041 -0.44943,0.69109 -0.0151,0.35301 -0.0258,0.71803 -0.0237,0.81116 0.002,0.0931 0.008,0.37835 0.0123,0.63382 l 0.009,0.46448 0.55034,0.004 c 0.45631,0.003 0.59811,0.0203 0.83002,0.1004 0.29196,0.10082 0.62794,0.32704 0.76895,0.51773 0.12303,0.16639 0.13926,0.45068 0.0352,0.61637 -0.12744,0.20291 -0.26468,0.27144 -0.63937,0.31927 -0.29515,0.0377 -0.34204,0.0552 -0.35677,0.13308 -0.1277,0.67535 -0.23539,0.91556 -0.52853,1.17885 -0.42623,0.38282 -1.01474,0.45456 -1.72821,0.21067 -0.21507,-0.0735 -0.49027,-0.18396 -0.61155,-0.24541 -0.28806,-0.14598 -0.68911,-0.53041 -0.85049,-0.81528 l -0.12834,-0.22653 -1.46462,0.0299 c -1.57331,0.0321 -1.79803,0.0174 -2.66357,-0.17461 l -0.47927,-0.10632 -0.23278,0.17575 c -0.54677,0.41282 -1.17143,0.58219 -1.87633,0.50874 -1.17439,-0.12236 -2.03031,-0.63322 -2.51164,-1.4991 -0.11163,-0.20081 -0.21641,-0.36489 -0.23284,-0.36461 -0.0164,2.9e-4 -0.0906,0.11118 -0.16492,0.24644 -0.45195,0.823 -1.17263,1.42435 -2.04156,1.70351 -0.8132,0.26125 -1.8818,0.32695 -2.67821,0.16465 l -0.42312,-0.0862 -0.493698,0.43816 c -0.718085,0.63731 -1.845208,1.62865 -2.119309,1.86401 -0.286689,0.24616 -0.88201,0.64993 -0.999051,0.6776 -0.04657,0.011 -0.303741,-0.0353 -0.5715,-0.10299 z m 0.960874,-0.95807 c 0.822006,-0.70277 1.803242,-1.70802 1.71779,-1.75982 -0.01806,-0.011 -0.290005,-0.0519 -0.60433,-0.0909 -0.575749,-0.0716 -1.558593,-0.26342 -1.989667,-0.38842 -0.284008,-0.0823 -0.502095,-0.18836 -0.791412,-0.38469 -0.128175,-0.087 -0.247429,-0.13868 -0.285875,-0.12392 -0.03628,0.0139 -0.172101,0.18984 -0.301825,0.39092 -0.129723,0.20109 -0.346767,0.50171 -0.482319,0.66804 -0.285166,0.34991 -0.711519,1.1609 -0.626535,1.19176 0.02959,0.0108 0.196674,0.0488 0.371299,0.0846 0.174625,0.0358 0.403225,0.0928 0.508,0.12664 0.104775,0.0339 0.43815,0.10097 0.740834,0.14908 0.564724,0.0897 1.176453,0.23085 1.290457,0.29765 0.123976,0.0727 0.220463,0.0384 0.453583,-0.16088 z m 20.706701,-1.55757 c 0.42276,-0.12554 0.6507,-0.45197 0.72417,-1.03703 0.0206,-0.16396 0.0629,-0.32886 0.0941,-0.36644 0.0905,-0.10911 0.31132,-0.18216 0.55272,-0.18284 0.42767,-0.001 0.55987,-0.1638 0.32783,-0.4032 -0.25452,-0.2626 -0.48634,-0.32948 -1.23361,-0.35588 -0.58593,-0.0207 -0.67772,-0.0339 -0.78316,-0.11218 -0.17232,-0.128 -0.21594,-0.34249 -0.12703,-0.62456 0.14166,-0.44938 0.0665,-0.66255 -0.2335,-0.66255 -0.40224,0 -0.75947,0.35268 -1.12983,1.11545 -0.47848,0.98544 -0.58231,1.49447 -0.3689,1.80854 0.19915,0.29308 0.65589,0.58662 1.16831,0.75088 0.46659,0.14957 0.68861,0.16493 1.00891,0.0698 z m -15.66363,-0.90993 c 0.48816,-0.0612 1.14716,-0.32287 1.56297,-0.62059 0.65125,-0.46629 1.03278,-0.78582 1.24483,-1.04253 0.3042,-0.36828 0.56694,-0.57897 0.72199,-0.57897 0.10213,0 0.20531,0.0759 0.53514,0.39388 0.42412,0.4088 0.94349,0.82129 1.28223,1.01835 0.10796,0.0628 0.32703,0.14189 0.48684,0.17574 0.3137,0.0665 1.10216,0.084 1.19282,0.0265 0.0374,-0.0237 -0.0593,-0.0806 -0.29634,-0.17409 -1.75421,-0.69207 -3.09132,-1.8708 -3.50673,-3.09136 -0.12988,-0.38159 -0.16708,-1.53108 -0.068,-2.10093 0.0968,-0.55694 0.32829,-1.22556 0.61651,-1.78094 0.20094,-0.38722 0.23821,-0.48825 0.18728,-0.50779 -0.0907,-0.0348 -0.76903,0.015 -0.95417,0.07 -0.3621,0.10768 -0.75431,0.48215 -0.75431,0.72018 0,0.15385 -0.18825,0.33296 -0.28548,0.27163 -0.1919,-0.12105 -0.1581,-0.50632 0.0749,-0.85359 0.27995,-0.41726 0.69617,-0.61677 1.40433,-0.67318 l 0.32592,-0.026 -0.0251,-0.26935 c -0.0234,-0.25012 -0.0157,-0.28464 0.10799,-0.48354 0.0732,-0.11781 0.13315,-0.24476 0.13315,-0.28213 0,-0.0999 -0.12679,-0.22277 -0.22997,-0.22277 -0.11901,0 -0.27803,-0.11447 -0.27803,-0.20015 0,-0.33703 0.69899,-0.27772 0.87718,0.0744 0.0771,0.15242 0.065,0.44759 -0.0311,0.75392 -0.0809,0.25809 -0.11067,0.51481 -0.0597,0.51481 0.0134,0 0.0805,-0.056 0.14895,-0.12452 0.14587,-0.14588 0.38742,-0.19613 0.73435,-0.15278 0.19856,0.0248 0.24177,0.0168 0.31724,-0.0587 0.10177,-0.10177 0.11064,-0.24355 0.0225,-0.36005 -0.0836,-0.11059 -0.0783,-0.17687 0.0225,-0.27766 0.11744,-0.11743 0.19995,-0.10616 0.34285,0.0468 0.10429,0.11165 0.12282,0.16613 0.12282,0.3612 0,0.29964 -0.0809,0.4839 -0.27833,0.63416 -0.1494,0.11369 -0.18647,0.122 -0.54424,0.122 -0.41527,0 -0.48976,0.0233 -0.48976,0.15283 0,0.12494 0.25899,0.21572 0.63473,0.22247 0.27641,0.005 0.34613,-0.01 0.5357,-0.1151 0.28456,-0.15772 0.51845,-0.40048 0.6499,-0.67454 0.11579,-0.24142 0.23333,-0.29878 0.35762,-0.17449 0.20678,0.20678 -0.31257,0.94314 -0.85155,1.20735 -0.15153,0.0743 -0.29512,0.10427 -0.55382,0.11564 -0.19209,0.008 -0.34925,0.0301 -0.34925,0.0482 0,0.0181 0.0286,0.10121 0.0635,0.1848 0.15176,0.36323 0.0188,0.71999 -0.33368,0.89566 -0.24365,0.12142 -0.41459,0.13455 -0.50996,0.0392 -0.12864,-0.12864 -0.0354,-0.35681 0.1458,-0.35681 0.0436,0 0.12801,-0.0429 0.18756,-0.0952 0.10745,-0.0945 0.1078,-0.097 0.0465,-0.32508 -0.034,-0.1264 -0.10177,-0.26927 -0.15069,-0.3175 -0.0888,-0.0875 -0.089,-0.0875 -0.15349,-0.003 -0.252,0.33056 -0.6532,1.36887 -0.75922,1.96488 -0.0782,0.43981 -0.0876,1.29665 -0.0179,1.63832 0.15939,0.78162 0.91578,1.70306 1.94185,2.3656 0.53407,0.34485 1.73862,0.87408 2.13634,0.93862 0.12878,0.0209 0.16831,-10e-4 0.41566,-0.23261 0.15557,-0.14552 0.41166,-0.46251 0.59436,-0.73568 0.18149,-0.27136 0.37182,-0.50718 0.43793,-0.54255 0.24592,-0.13162 0.46892,-0.085 0.95113,0.19886 0.24427,0.14379 0.69248,0.36726 0.99602,0.49659 0.65954,0.28102 0.954,0.33063 1.70803,0.28777 l 0.52426,-0.0298 0.20325,-0.39469 c 0.20414,-0.3964 0.49091,-0.81324 0.65164,-0.9472 0.16241,-0.13537 0.48606,-0.29195 0.66719,-0.32279 l 0.18108,-0.0308 0.0212,-0.74706 c 0.0205,-0.72391 0.0245,-0.75062 0.127,-0.86215 0.14724,-0.16012 0.55968,-0.33989 1.00207,-0.43677 0.8838,-0.19353 2.12924,-0.82995 2.4292,-1.24133 0.47473,-0.65104 0.51721,-1.1697 0.20906,-2.55251 -0.0674,-0.30268 -0.16471,-0.74587 -0.21615,-0.98487 l -0.0935,-0.43453 -1.16791,0.0269 c -1.66976,0.0384 -2.06165,-0.0384 -2.28975,-0.44898 -0.097,-0.17466 -0.10533,-0.23098 -0.0998,-0.67733 0.003,-0.26776 0.0228,-0.69314 0.0434,-0.94528 0.0206,-0.25215 0.0214,-0.46835 0.002,-0.48045 -0.0196,-0.0121 -0.10104,-0.01 -0.18102,0.005 l -0.14542,0.0273 v 0.48186 c 0,0.95062 -0.16013,1.53283 -0.49102,1.78521 -0.26413,0.20146 -1.21501,0.37952 -2.55698,0.47882 -1.19509,0.0884 -1.69572,0.0513 -1.99941,-0.14835 -0.34235,-0.22503 -0.37618,-0.44497 -0.26663,-1.73319 0.039,-0.45917 0.0465,-0.73401 0.0206,-0.75993 -0.025,-0.0249 -0.68648,-0.0361 -1.71557,-0.029 -1.80985,0.0125 -1.93837,0.026 -2.38567,0.25021 -0.34016,0.17053 -0.4437,0.29456 -0.52584,0.62991 -0.0805,0.32868 -0.17724,0.48347 -0.33786,0.54069 -0.13764,0.049 -0.29565,-0.0263 -0.36238,-0.17275 -0.0727,-0.1595 0.0449,-0.85818 0.18457,-1.09644 0.18419,-0.3143 0.66396,-0.62649 1.27107,-0.82712 l 0.29633,-0.0979 3.95817,-0.006 c 2.91454,-0.004 4.08652,-0.0204 4.445,-0.0605 0.27994,-0.0314 1.0985,-0.0584 1.92616,-0.0637 0.79164,-0.005 1.57534,-0.0239 1.74157,-0.0419 l 0.30224,-0.0327 0.0885,-0.30191 c 0.21483,-0.73267 0.2677,-1.02737 0.28969,-1.61502 0.0139,-0.37196 0.004,-0.68108 -0.0265,-0.82825 -0.23781,-1.14549 -1.32489,-1.66106 -2.62534,-1.24512 -0.41431,0.13251 -1.01025,0.38579 -1.10699,0.47048 -0.17045,0.14921 -0.46233,-0.0156 -0.46233,-0.26099 0,-0.0745 0.0406,-0.22726 0.0903,-0.33953 0.0823,-0.18606 0.0882,-0.25489 0.0671,-0.77796 -0.0334,-0.82721 -0.1071,-1.02084 -0.55675,-1.46285 -0.421,-0.41385 -0.70817,-0.5881 -1.24323,-0.75435 -0.35552,-0.11047 -0.4759,-0.12765 -0.89743,-0.12808 -0.43804,-4.4e-4 -0.52681,0.0132 -0.88563,0.13567 -0.67838,0.23159 -1.01666,0.43374 -1.39534,0.83379 -0.2621,0.27689 -0.38435,0.45173 -0.56661,0.81035 -0.12782,0.25151 -0.24481,0.54363 -0.25996,0.64917 -0.0599,0.41723 -0.27557,0.57266 -0.51201,0.36903 -0.11827,-0.10185 -0.13939,-0.20352 -0.22755,-1.0952 -0.0472,-0.47722 -0.1208,-0.64491 -0.43317,-0.98669 -0.60586,-0.66291 -1.35334,-0.98169 -2.5354,-1.08128 -1.03239,-0.087 -1.83943,0.1399 -2.43556,0.68473 -0.4568,0.41749 -0.58226,0.73849 -0.65698,1.68096 -0.0533,0.67229 -0.0965,0.83931 -0.23294,0.90149 -0.17305,0.0789 -0.34469,-0.0302 -0.54885,-0.34871 -0.38234,-0.59649 -0.89663,-1.04101 -1.58745,-1.37207 -0.40514,-0.19416 -0.67086,-0.19907 -1.38155,-0.0255 -1.027472,0.2509 -1.166807,0.34595 -1.498063,1.02187 -0.171076,0.34909 -0.174018,0.36269 -0.154798,0.71568 0.01647,0.30256 0.06186,0.48114 0.285135,1.12184 0.314938,0.90374 0.345706,1.08132 0.204492,1.18023 -0.22337,0.15645 -0.258729,0.13538 -1.223366,-0.72908 -0.577784,-0.51779 -0.80808,-0.62994 -1.482149,-0.72183 -0.680186,-0.0927 -1.348429,0.0609 -2.093756,0.48123 -0.399145,0.22511 -0.605662,0.43855 -0.793811,0.82043 -0.119773,0.2431 -0.139441,0.33057 -0.152393,0.67773 -0.02371,0.63558 0.142927,1.18986 0.569875,1.89553 0.207833,0.34351 0.234574,0.41231 0.210389,0.54123 -0.03604,0.19212 -0.199703,0.32069 -0.408205,0.32069 -0.481897,0 -1.38784,0.2058 -1.779399,0.40422 -0.270844,0.13725 -0.481872,0.36282 -0.629702,0.67309 -0.261223,0.54827 -0.275761,0.93617 -0.05193,1.38546 0.161622,0.32442 0.91583,1.12097 1.298885,1.37181 0.293231,0.19202 0.36735,0.33146 0.272974,0.51354 -0.03338,0.0644 -0.312848,0.36998 -0.621047,0.67908 -0.3082,0.3091 -0.599806,0.63932 -0.648016,0.73382 -0.114363,0.22417 -0.315002,1.00154 -0.403322,1.56265 -0.143854,0.91394 -0.0055,1.38085 0.482208,1.62748 0.172158,0.0871 0.706894,0.19285 0.974753,0.19285 0.256754,0 1.442965,-0.33795 1.855963,-0.52877 0.340565,-0.15735 0.435172,-0.17496 0.565422,-0.10526 0.175315,0.0938 0.178839,0.17894 0.03373,0.81466 -0.156012,0.6835 -0.190869,1.37421 -0.08234,1.63152 0.08929,0.21168 0.3786,0.33899 0.937118,0.41237 0.600949,0.079 0.973376,0.0207 1.478589,-0.23144 0.461353,-0.23021 0.666491,-0.38151 0.870741,-0.64222 0.394846,-0.50397 0.859211,-0.49137 0.955611,0.0259 0.03491,0.18735 0.138929,0.42349 0.596281,1.35369 0.211131,0.42942 0.367551,0.5504 0.924491,0.71497 0.40247,0.11893 0.81393,0.13867 1.38857,0.0666 z m 13.85039,-8.04598 c -0.56646,-0.0465 -0.77741,-0.0971 -1.04846,-0.25196 -0.2146,-0.12256 -0.58347,-0.51828 -0.70851,-0.76006 -0.14456,-0.27956 -0.0144,-0.63475 0.23258,-0.63475 0.18848,0 0.25164,0.0403 0.34269,0.21879 0.14354,0.28136 0.36248,0.48892 0.60226,0.57097 0.17033,0.0583 0.33358,0.0731 0.72761,0.0661 0.53299,-0.01 2.28999,-0.12579 2.38159,-0.15761 0.0293,-0.0102 0.22574,-0.0212 0.43653,-0.0246 0.34587,-0.006 0.39335,0.003 0.48656,0.0909 0.2723,0.25581 0.19447,0.61856 -0.17202,0.80181 -0.21128,0.10564 -0.21402,0.10584 -1.524,0.11136 -0.72178,0.003 -1.51236,-0.0109 -1.75683,-0.0309 z m -0.89958,7.55855 c 0.0291,-0.009 0.0529,-0.0446 0.0529,-0.0792 0,-0.073 -0.068,-0.0857 -0.80578,-0.14982 -0.68472,-0.0596 -1.38017,-0.21799 -1.75478,-0.39975 -0.16331,-0.0792 -0.46839,-0.28855 -0.67794,-0.46513 -0.20955,-0.17658 -0.39475,-0.32128 -0.41157,-0.32155 -0.0168,-2.6e-4 -0.0623,0.10904 -0.10116,0.24292 -0.0909,0.31329 -0.17013,0.48707 -0.34837,0.76376 -0.0794,0.12321 -0.13588,0.23245 -0.12557,0.24276 0.0308,0.0308 0.65526,0.15237 0.95857,0.18666 0.27224,0.0308 3.10606,0.0126 3.21369,-0.0206 z m 7.59999,-2.1382 c 0.0879,-0.0244 0.22547,-0.10197 0.3056,-0.17233 0.16562,-0.14542 0.44458,-0.66984 0.44481,-0.83623 3e-4,-0.20617 0.14299,-0.37001 0.40888,-0.4695 0.13536,-0.0506 0.27015,-0.11203 0.29953,-0.13642 0.0739,-0.0614 0.0671,-0.41891 -0.0101,-0.52913 -0.0949,-0.13548 -0.37187,-0.17843 -0.81939,-0.12706 -0.33706,0.0387 -0.39329,0.0352 -0.49315,-0.0302 -0.16802,-0.11009 -0.24272,-0.32169 -0.19167,-0.54296 0.0229,-0.0993 0.0421,-0.20428 0.0427,-0.23339 0.003,-0.16192 -0.46702,0.0511 -0.81526,0.36938 -0.4698,0.42937 -0.74752,1.00341 -0.74915,1.5485 -7.6e-4,0.25685 0.0161,0.32539 0.12043,0.48993 0.13324,0.21009 0.38878,0.43621 0.68308,0.60441 0.20931,0.11963 0.49154,0.14334 0.77368,0.065 z m -8.80264,-8.60171 c 0.17696,-0.21641 0.72479,-1.11251 0.84164,-1.37666 0.0741,-0.16751 0.0764,-0.19608 0.0204,-0.25211 -0.0427,-0.0427 -0.0853,-0.0508 -0.13127,-0.0251 -0.10103,0.0565 -0.753,0.97907 -1.10311,1.56087 -0.0697,0.11586 -0.0739,0.14817 -0.0266,0.20521 0.0999,0.12032 0.24133,0.0805 0.39892,-0.11222 z m 5.37668,-0.0742 c 0.10554,-0.12543 0.58741,-0.9092 0.72088,-1.17252 0.0937,-0.1849 0.0875,-0.3383 -0.016,-0.39368 -0.13782,-0.0738 -0.23108,0.0124 -0.44595,0.41226 -0.10964,0.204 -0.3018,0.52544 -0.42703,0.71431 -0.23671,0.35703 -0.26201,0.43083 -0.17688,0.51596 0.088,0.0881 0.23378,0.0558 0.34498,-0.0763 z m -5.99481,-0.22212 c 0.1161,-0.1251 0.66871,-1.00072 0.70518,-1.11737 0.0573,-0.18317 -0.1914,-0.30008 -0.32465,-0.15263 -0.1721,0.19044 -0.7505,1.09582 -0.7505,1.17478 0,0.19875 0.22108,0.25565 0.36997,0.0952 z m 5.43664,-0.23283 c 0.0651,-0.0773 0.35429,-0.56652 0.47566,-0.80472 0.0807,-0.15831 0.034,-0.30653 -0.0965,-0.30653 -0.0949,0 -0.14528,0.0572 -0.4442,0.50476 -0.22485,0.33661 -0.29811,0.56421 -0.20998,0.65235 0.0542,0.0542 0.21313,0.0277 0.27506,-0.0459 z"
         id="path409" />
      <path
         style="fill:#131112;stroke-width:0.0423333"
         d="m 104.43827,136.92292 c -0.0735,-0.0735 -0.0105,-0.21339 0.17286,-0.38421 0.11059,-0.10302 0.43921,-0.38322 0.73025,-0.62267 0.63679,-0.52391 0.98687,-0.88288 0.88111,-0.90349 -0.0963,-0.0188 -1.79198,0.95037 -2.81638,1.60965 -0.21455,0.13808 -0.42388,0.24455 -0.46518,0.2366 -0.18134,-0.0349 -0.0882,-0.16972 0.57025,-0.82544 0.64323,-0.64053 1.25164,-1.32398 1.35932,-1.52697 0.0731,-0.13779 4.5e-4,-0.12368 -0.30675,0.0596 -0.24918,0.14864 -2.31156,1.5192 -2.60119,1.72863 -0.14676,0.10612 -0.23774,0.1031 -0.28087,-0.009 -0.0175,-0.0457 0.083,-0.1744 0.31977,-0.40948 0.44567,-0.44244 0.70773,-0.74473 1.13262,-1.30649 0.35343,-0.46729 0.41929,-0.61092 0.25641,-0.55922 -0.39451,0.12521 -2.08588,1.29236 -2.9559,2.03976 -0.36892,0.31692 -0.515954,0.3725 -0.547527,0.20699 -0.01066,-0.0559 0.08698,-0.17874 0.319637,-0.40217 0.33632,-0.323 1.02647,-1.20306 1.02769,-1.31049 3.8e-4,-0.0339 -0.0255,-0.0474 -0.0631,-0.033 -0.035,0.0134 -0.49752,0.32828 -1.02774,0.69964 -1.086581,0.76103 -1.161622,0.80434 -1.256801,0.72535 -0.03561,-0.0296 -0.06475,-0.0719 -0.06475,-0.094 0,-0.0222 0.107675,-0.15318 0.239278,-0.29115 0.139165,-0.1459 0.212582,-0.25085 0.175473,-0.25085 -0.03509,0 -0.440427,0.23812 -0.900743,0.52916 -0.800863,0.50636 -0.958251,0.58164 -1.017075,0.48646 -0.05631,-0.0911 0.03392,-0.2049 0.314552,-0.39665 0.315839,-0.2158 0.426592,-0.35253 0.223406,-0.27581 -0.06292,0.0238 -0.449732,0.22296 -0.859594,0.44268 -0.409862,0.21972 -0.784061,0.39949 -0.831554,0.39949 -0.148303,0 -0.150393,-0.12719 -0.0059,-0.35687 0.236517,-0.37585 0.269398,-0.4413 0.237655,-0.47304 -0.01707,-0.0171 -0.316554,0.0592 -0.665509,0.16945 -0.348956,0.11028 -0.68689,0.19445 -0.750965,0.18706 -0.185513,-0.0214 -0.168739,-0.14154 0.05283,-0.37842 0.109093,-0.11663 0.188084,-0.22232 0.175536,-0.23487 -0.03129,-0.0313 -0.150684,0.0314 -1.107754,0.58201 -0.666318,0.38331 -0.846296,0.46987 -0.902859,0.43426 -0.142732,-0.0899 -0.09618,-0.18287 0.292925,-0.58508 0.214789,-0.22203 0.378645,-0.41556 0.364125,-0.43008 -0.01452,-0.0145 -0.315856,0.0819 -0.669635,0.21424 -0.353779,0.13235 -0.692546,0.23491 -0.752815,0.22791 -0.133822,-0.0156 -0.167419,-0.15773 -0.0701,-0.29667 0.154549,-0.22065 0.06841,-0.21261 -0.547474,0.0511 -0.4928,0.211 -0.62985,0.24616 -0.674973,0.17315 -0.07494,-0.12125 0.220982,-0.2872 1.318835,-0.73961 0.511803,-0.2109 0.608697,-0.22957 0.689052,-0.13275 0.04209,0.0507 0.03495,0.0919 -0.03715,0.21409 -0.175058,0.2967 -0.182036,0.29758 0.773164,-0.0977 0.513009,-0.2123 0.688226,-0.2678 0.740834,-0.23467 0.120503,0.0759 0.100747,0.17579 -0.07627,0.38572 -0.319329,0.37871 -0.263521,0.36295 0.736936,-0.20809 0.657261,-0.37515 0.846,-0.46508 0.931205,-0.44369 0.193653,0.0486 0.139628,0.20667 -0.18947,0.55437 -0.287689,0.30395 -0.348205,0.40217 -0.247795,0.40217 0.0267,0 0.229932,-0.0581 0.451635,-0.12913 0.500757,-0.1604 0.616721,-0.15471 0.634725,0.0312 0.0072,0.0742 -0.01663,0.19231 -0.05292,0.26248 -0.0743,0.14368 -0.08387,0.21647 -0.02847,0.21647 0.02063,0 0.444496,-0.21686 0.941917,-0.48192 1.526459,-0.81339 1.804396,-0.9432 1.889286,-0.88245 0.0404,0.0289 0.09685,0.0639 0.12544,0.0776 0.05867,0.0283 0.866197,-0.49292 1.276317,-0.82379 0.28337,-0.22862 0.33709,-0.24998 0.42006,-0.16702 0.0751,0.0752 0.0656,0.10195 -0.10331,0.28887 -0.0847,0.0938 -0.14506,0.17962 -0.134,0.19067 0.011,0.011 0.15183,-0.0652 0.31285,-0.16955 0.32289,-0.20916 0.46266,-0.23837 0.50483,-0.10549 0.0288,0.0906 -0.0695,0.285 -0.36709,0.72663 -0.28346,0.4206 -0.23287,0.42719 0.32799,0.0427 0.60924,-0.41766 1.11752,-0.71612 1.50706,-0.88492 0.28345,-0.12284 0.35913,-0.14039 0.44222,-0.10253 0.0643,0.0293 0.10025,0.0816 0.10025,0.14585 0,0.1127 -0.22625,0.47862 -0.59726,0.966 -0.37464,0.49215 -0.34064,0.52385 0.18437,0.17189 0.72921,-0.48884 1.74234,-1.06692 1.86987,-1.06692 0.0967,0 0.1494,0.12749 0.10306,0.24939 -0.0536,0.141 -0.40147,0.60821 -0.82979,1.11449 -0.32526,0.38445 -0.39781,0.49879 -0.31652,0.49879 0.018,0 0.299,-0.15495 0.62442,-0.34434 0.72964,-0.42462 1.634,-0.88333 1.74153,-0.88333 0.0441,0 0.11403,0.0396 0.15543,0.0879 0.0495,0.0579 0.0925,0.0748 0.12582,0.0495 0.46031,-0.34914 0.68539,-0.50829 1.35738,-0.9598 0.82741,-0.55593 1.0058,-0.63056 1.06458,-0.44536 0.0195,0.0614 -0.0192,0.15485 -0.13119,0.31751 -0.0873,0.12681 -0.14883,0.24052 -0.13666,0.25269 0.0122,0.0122 0.20108,-0.11514 0.41979,-0.28291 1.53541,-1.17781 1.66179,-1.26738 1.77029,-1.25476 0.2717,0.0316 0.1256,0.2961 -0.83729,1.51587 -0.56593,0.71691 -0.57535,0.79373 -0.0483,0.39401 0.59442,-0.45082 1.61353,-1.11403 1.71185,-1.11403 0.0538,0 0.12254,0.0297 0.15266,0.066 0.0723,0.0871 -0.0423,0.32601 -0.40864,0.85181 -0.25577,0.36713 -0.31239,0.48043 -0.239,0.4783 0.0175,-5.1e-4 0.33655,-0.23944 0.70909,-0.53097 0.68669,-0.53737 1.33359,-0.99747 1.47415,-1.04847 0.0994,-0.0361 0.24035,0.0393 0.24035,0.12851 0,0.0932 -0.19565,0.43381 -0.49639,0.86412 -0.32758,0.46873 -0.32318,0.46073 -0.25362,0.46073 0.0326,0 0.34331,-0.2135 0.69041,-0.47444 1.19637,-0.8994 1.43808,-1.0307 1.54153,-0.83739 0.057,0.10653 -0.0197,0.28809 -0.35376,0.83707 -0.2434,0.40002 -0.27401,0.47476 -0.1944,0.47476 0.0246,0 0.34372,-0.18354 0.70909,-0.40787 0.36536,-0.22433 0.6782,-0.41571 0.69518,-0.42529 0.017,-0.01 0.0713,0.004 0.12067,0.0306 0.0906,0.0485 0.0971,0.16535 0.0192,0.34744 -0.061,0.14252 0.0677,0.0738 0.53501,-0.28575 0.25723,-0.19791 0.50136,-0.35984 0.54251,-0.35984 0.0412,0 0.10018,0.0306 0.13117,0.0679 0.0473,0.0571 0.0448,0.088 -0.016,0.19393 -0.15499,0.27006 -0.0741,0.2684 0.3853,-0.008 0.19349,-0.11637 0.37542,-0.21158 0.40428,-0.21158 0.0825,0 0.15409,0.0925 0.15409,0.19896 0,0.12755 0.0534,0.12283 0.26754,-0.0237 0.0973,-0.0666 0.24133,-0.15406 0.32001,-0.19441 0.13952,-0.0716 0.14629,-0.071 0.27365,0.0232 l 0.1306,0.0966 0.3627,-0.19474 c 0.41213,-0.22127 0.50817,-0.21556 0.50817,0.0302 0,0.079 0.0161,0.1535 0.0357,0.16565 0.0196,0.0121 0.28465,-0.0915 0.58889,-0.23034 0.7089,-0.32348 0.78033,-0.32568 0.86086,-0.0266 0.0494,0.18354 0.29788,0.44652 0.42493,0.44977 0.11296,0.003 0.18467,0.11627 0.1216,0.19226 -0.0875,0.10541 -0.31898,0.0779 -0.47478,-0.0564 -0.0765,-0.0659 -0.17278,-0.13214 -0.214,-0.14716 -0.0412,-0.015 -0.0868,-0.0866 -0.10127,-0.15895 -0.0145,-0.0724 -0.0514,-0.14125 -0.082,-0.15299 -0.0306,-0.0117 -0.33528,0.11372 -0.67707,0.27881 -0.34179,0.16508 -0.65462,0.30015 -0.69516,0.30015 -0.1044,0 -0.18065,-0.10754 -0.14836,-0.20925 0.0518,-0.16329 -0.0212,-0.16806 -0.32727,-0.0214 -0.33823,0.16209 -0.42012,0.17567 -0.49747,0.0825 -0.029,-0.0349 -0.0752,-0.0635 -0.10277,-0.0635 -0.0532,0 -0.80134,0.49694 -1.078,0.71606 -0.18363,0.14544 -0.26507,0.16128 -0.34347,0.0668 -0.0435,-0.0524 -0.0331,-0.0938 0.0583,-0.23193 0.10938,-0.16528 0.13857,-0.25461 0.0832,-0.25461 -0.0154,0 -0.23141,0.1143 -0.47995,0.254 -0.24855,0.1397 -0.47361,0.254 -0.50015,0.254 -0.0265,0 -0.0794,-0.0476 -0.11758,-0.10584 -0.0381,-0.0582 -0.0839,-0.10583 -0.10164,-0.10583 -0.0178,0 -0.35342,0.24819 -0.74591,0.55152 -0.39249,0.30334 -0.74043,0.54623 -0.77321,0.53975 -0.0328,-0.006 -0.08,-0.0442 -0.10496,-0.0838 -0.0361,-0.0573 -0.0197,-0.10207 0.0801,-0.2191 0.069,-0.0809 0.22549,-0.26378 0.34773,-0.40642 0.21457,-0.25039 0.26323,-0.33963 0.18522,-0.33963 -0.0204,0 -0.38326,0.22076 -0.80642,0.49057 -0.45065,0.28734 -0.79522,0.48064 -0.83176,0.46662 -0.11185,-0.0429 -0.11725,-0.15485 -0.0142,-0.29349 0.45214,-0.60806 0.86356,-1.28081 0.8053,-1.31681 -0.0439,-0.0271 -0.67871,0.43682 -2.07035,1.51293 -0.47241,0.3653 -0.88607,0.66419 -0.91926,0.66419 -0.0332,0 -0.0801,-0.0369 -0.10427,-0.0821 -0.0375,-0.0701 0.009,-0.14267 0.32094,-0.49741 0.43344,-0.4934 1.15935,-1.44842 1.15935,-1.52527 0,-0.11875 -0.0291,-0.0994 -1.05834,0.70415 -0.61341,0.47889 -1.32484,1.05636 -1.79297,1.45535 -0.17667,0.15058 -0.31462,0.2379 -0.35272,0.22328 -0.0344,-0.0132 -0.0705,-0.024 -0.0803,-0.024 -0.01,0 -0.0177,-0.0403 -0.0177,-0.0896 0,-0.0496 0.10112,-0.19882 0.22646,-0.3342 0.59608,-0.64384 1.47534,-1.83289 1.37082,-1.85381 -0.10973,-0.022 -1.904,1.29975 -2.67039,1.96711 -0.40882,0.35599 -0.50293,0.41674 -0.59242,0.3824 -0.13744,-0.0527 -0.0722,-0.20575 0.21755,-0.51033 0.41636,-0.43767 0.73066,-0.8056 1.35794,-1.5897 0.89491,-1.11863 0.82729,-1.08823 -1.1588,0.52091 -0.48895,0.39615 -1.10377,0.90686 -1.36628,1.13491 -0.479,0.41613 -0.64583,0.49801 -0.7043,0.34565 -0.0191,-0.0497 0.12514,-0.21804 0.51696,-0.60325 0.53238,-0.5234 1.23612,-1.30264 1.23612,-1.36872 0,-0.0695 -0.0901,-0.0262 -0.4314,0.207 -0.84269,0.57585 -1.74347,1.29139 -2.28002,1.81116 -0.73219,0.70928 -1.28684,1.09043 -1.40902,0.96824 z m -8.516058,-5.47176 c -1.007823,-0.27184 -2.580234,-0.77201 -2.836333,-0.90222 -0.270526,-0.13753 -0.339337,-0.32537 -0.194747,-0.53159 0.04423,-0.0631 0.28164,-0.42141 0.527576,-0.79626 0.245935,-0.37486 0.647896,-0.94219 0.893246,-1.26073 0.24535,-0.31855 0.446091,-0.59904 0.446091,-0.62331 0,-0.0243 -0.102264,-0.13761 -0.227253,-0.25184 -0.313516,-0.28653 -0.418134,-0.53754 -0.441301,-1.05879 -0.01646,-0.37038 -0.0065,-0.43835 0.116837,-0.79758 0.07416,-0.21598 0.125457,-0.40207 0.114,-0.41352 -0.01146,-0.0115 -0.274847,0.0656 -0.585308,0.17132 -1.043398,0.3552 -1.800364,0.35931 -2.461894,0.0134 -0.725226,-0.37925 -1.022354,-1.20904 -0.874889,-2.44331 0.154771,-1.29541 0.605841,-2.15097 1.3694,-2.59739 0.154591,-0.0904 0.281075,-0.17959 0.281075,-0.19825 0,-0.0187 -0.235756,-0.26856 -0.523902,-0.55534 -0.812243,-0.80838 -1.020286,-1.19185 -1.017823,-1.87608 0.0023,-0.64063 0.298583,-1.35459 0.727273,-1.75258 0.334436,-0.31048 0.830686,-0.51508 1.862202,-0.76777 0.09895,-0.0242 0.179917,-0.0629 0.179917,-0.086 0,-0.023 -0.05483,-0.15091 -0.121839,-0.28412 -0.259214,-0.51531 -0.388545,-0.98974 -0.415399,-1.52385 -0.02887,-0.57414 0.02117,-0.81075 0.27506,-1.3007 0.213231,-0.41148 0.565882,-0.74916 1.087678,-1.04152 0.751865,-0.42126 1.195703,-0.52591 2.090162,-0.49283 0.767554,0.0284 1.312484,0.20024 1.750109,0.55193 0.08811,0.0708 0.171433,0.1175 0.185168,0.10376 0.01373,-0.0137 -0.0053,-0.20125 -0.04232,-0.4167 -0.132656,-0.77226 -0.05931,-1.20029 0.309933,-1.80856 0.296296,-0.4881 0.450676,-0.61579 1.000208,-0.82724 0.609601,-0.23456 1.320581,-0.37706 1.783211,-0.3574 0.35429,0.0151 0.41908,0.032 0.74956,0.19574 0.51127,0.25334 0.95745,0.56255 1.20916,0.83797 0.12295,0.13451 0.24044,0.22718 0.27247,0.21489 0.0333,-0.0128 0.0671,-0.1228 0.0826,-0.26882 0.0779,-0.73305 0.4064,-1.21567 1.26485,-1.85823 0.61075,-0.45715 1.40316,-0.73269 2.36902,-0.82378 0.70773,-0.0667 1.16454,0.0132 1.74632,0.30556 0.84594,0.42512 1.39517,0.98746 1.67372,1.71368 0.17797,0.46397 0.16937,0.449 0.22937,0.3992 0.0306,-0.0254 0.15665,-0.21151 0.28017,-0.41364 0.25717,-0.42085 0.50659,-0.68813 0.7653,-0.82011 0.30778,-0.15702 0.94538,-0.37158 1.30945,-0.44064 0.50831,-0.0964 1.30046,-0.0874 1.71869,0.0195 0.61103,0.15627 1.26468,0.55225 1.69008,1.02384 0.49475,0.54847 0.63402,0.89634 0.67907,1.69619 0.0168,0.29745 0.0471,0.5511 0.0674,0.56366 0.0203,0.0126 0.16209,-0.0272 0.31506,-0.0884 0.36077,-0.14433 1.14077,-0.24869 1.64725,-0.22039 0.46475,0.026 0.85542,0.14463 1.18839,0.36096 0.71427,0.46408 0.86478,0.87715 0.86478,2.37336 0,1.00063 -0.0438,1.41052 -0.19577,1.83178 -0.0577,0.15995 -0.0933,0.30962 -0.0791,0.33261 0.0142,0.023 0.1672,0.0418 0.33998,0.0418 0.38778,0 0.64384,0.0909 0.68176,0.24196 0.0504,0.20074 -0.02,1.29449 -0.10974,1.70537 -0.15017,0.68756 -0.20047,0.80314 -0.45354,1.04217 l -0.22939,0.21666 0.0611,0.16434 c 0.0336,0.0904 0.12152,0.31472 0.1954,0.49852 0.0739,0.1838 0.21053,0.63148 0.30366,0.99483 0.25958,1.01286 0.24333,1.55017 -0.0694,2.29421 -0.18528,0.44084 -0.40704,0.76386 -0.78615,1.14511 -0.25096,0.25238 -0.39976,0.36112 -0.67808,0.49554 -0.38532,0.1861 -1.08935,0.42996 -1.24129,0.42996 -0.0517,0 -0.13091,0.0275 -0.1761,0.061 -0.10885,0.0808 -0.055,0.17078 0.20988,0.35062 0.35399,0.24032 1.46407,0.54165 1.62494,0.44108 0.0299,-0.0187 0.0909,-0.18702 0.13556,-0.37407 0.0447,-0.18706 0.12714,-0.44272 0.18324,-0.56813 0.2872,-0.64205 1.00128,-1.29447 1.50496,-1.37501 0.15361,-0.0246 0.18521,-0.0136 0.30499,0.10622 0.12961,0.12961 0.13277,0.14157 0.10534,0.39771 -0.0448,0.41876 -0.0558,0.4107 0.54164,0.39907 0.58488,-0.0114 0.77792,0.0479 0.92131,0.28293 0.25357,0.41564 0.10093,0.854 -0.36985,1.0622 -0.1763,0.078 -0.23026,0.12498 -0.25109,0.21875 -0.0978,0.44 -0.22191,0.6844 -0.4937,0.97178 -0.26256,0.27761 -0.49715,0.37533 -0.90106,0.37533 -0.34663,0 -0.49856,-0.0539 -0.85348,-0.30282 -0.30457,-0.2136 -0.52494,-0.45794 -0.64678,-0.71715 -0.0951,-0.20239 -0.0767,-0.19472 -0.64147,-0.26728 -0.39203,-0.0504 -0.82231,-0.18145 -1.16027,-0.35344 -0.22394,-0.11396 -0.5114,-0.37447 -0.55105,-0.49939 -0.013,-0.041 -0.0538,-0.0862 -0.0907,-0.10033 -0.0804,-0.0308 -0.57689,0.0154 -0.6499,0.0606 -0.0361,0.0223 -0.05,0.17593 -0.0464,0.51318 0.003,0.28226 -0.0191,0.58275 -0.0535,0.72651 -0.0509,0.21285 -0.0502,0.27385 0.005,0.46268 0.052,0.17732 0.0554,0.2767 0.0184,0.53799 -0.0345,0.24363 -0.0332,0.33285 0.005,0.37199 0.0335,0.0341 0.25854,0.0571 0.66441,0.0681 0.7597,0.0206 0.99788,0.0967 1.33999,0.42803 0.2161,0.20931 0.22625,0.22898 0.22625,0.43833 0,0.36929 -0.24483,0.55397 -0.74083,0.55882 -0.0931,9.1e-4 -0.1935,0.017 -0.22303,0.0357 -0.0598,0.038 -0.13681,0.27316 -0.13681,0.41784 0,0.36093 -0.43324,0.95992 -0.79536,1.09965 -0.30658,0.1183 -0.95792,0.10688 -1.34247,-0.0235 -0.69197,-0.23466 -1.21524,-0.62145 -1.43953,-1.06406 -0.0589,-0.11621 -0.13056,-0.21291 -0.15927,-0.21489 -0.0287,-0.002 -0.8142,-0.007 -1.74553,-0.0106 -1.69316,-0.007 -1.6934,-0.007 -2.28916,-0.13038 l -0.59583,-0.12339 -0.22967,0.17324 c -0.53022,0.39992 -1.06531,0.54986 -1.78532,0.50027 -0.77109,-0.0531 -1.42233,-0.28957 -1.90523,-0.69179 -0.28741,-0.23939 -0.48033,-0.48194 -0.69682,-0.87609 -0.0882,-0.16051 -0.18193,-0.29889 -0.20835,-0.3075 -0.0264,-0.009 -0.12528,0.12332 -0.21967,0.29317 -0.44773,0.80563 -1.12614,1.38115 -1.96558,1.66744 -0.69668,0.23762 -1.90344,0.31041 -2.73229,0.16481 l -0.4268,-0.075 -0.732813,0.6523 c -1.76334,1.56962 -2.099474,1.85512 -2.488064,2.11322 -0.213459,0.14179 -0.357625,0.20885 -0.4445,0.20678 -0.07072,-0.002 -0.395277,-0.075 -0.721244,-0.16292 z m 1.193519,-0.75477 c 0.588713,-0.50372 1.479144,-1.37348 1.708278,-1.66862 0.138577,-0.1785 0.360069,-0.41937 0.492204,-0.53528 l 0.240246,-0.21073 -0.221216,-0.24789 c -0.281167,-0.31507 -0.484985,-0.72167 -0.578339,-1.15374 l -0.07331,-0.3393 -0.295502,0.31642 c -0.328208,0.35144 -0.645482,0.53313 -1.217047,0.69694 -0.389584,0.11166 -1.254052,0.16134 -1.542702,0.0887 -0.17666,-0.0445 -0.206434,-0.0399 -0.355936,0.0545 -0.173166,0.10931 -0.326496,0.28931 -0.551383,0.64728 -0.07599,0.12097 -0.251996,0.35909 -0.391118,0.52917 -0.251173,0.30706 -0.672527,1.06956 -0.672527,1.21703 0,0.0796 0.138951,0.12873 0.549774,0.19447 0.104467,0.0167 0.26379,0.0565 0.35405,0.0883 0.09026,0.0319 0.395312,0.0963 0.677892,0.14313 0.587335,0.0974 1.216757,0.24218 1.402784,0.3226 0.191699,0.0829 0.22,0.0743 0.473852,-0.14288 z m 20.680149,-1.58158 c 0.31823,-0.0667 0.62239,-0.37756 0.72412,-0.74015 0.0394,-0.14056 0.0717,-0.31534 0.0717,-0.38838 0,-0.32827 0.14048,-0.43463 0.63338,-0.47956 0.37463,-0.0341 0.46729,-0.0864 0.46729,-0.26358 0,-0.10987 -0.24092,-0.33128 -0.49357,-0.45361 -0.17779,-0.0861 -0.29184,-0.10268 -0.8611,-0.1253 -0.40256,-0.016 -0.69935,-0.0474 -0.76791,-0.0812 -0.2012,-0.0994 -0.25776,-0.34742 -0.14225,-0.62387 0.16104,-0.38545 0.035,-0.69198 -0.28451,-0.69198 -0.39135,0 -0.7411,0.31133 -1.08038,0.96171 -0.40907,0.78414 -0.62479,1.45597 -0.57227,1.78222 0.0484,0.30084 0.59905,0.75653 1.17214,0.97005 0.47109,0.17552 0.76705,0.21043 1.13335,0.13369 z m -15.41336,-0.92774 c 0.10724,-0.0202 0.39299,-0.11478 0.635,-0.21016 0.36625,-0.14433 0.54295,-0.25013 1.05386,-0.631 0.41454,-0.30903 0.73602,-0.59084 0.99018,-0.868 0.42662,-0.46521 0.56866,-0.56209 0.71412,-0.48708 0.0522,0.0269 0.27584,0.2242 0.49703,0.43844 0.44367,0.42972 1.1649,0.96355 1.42649,1.05584 0.22717,0.0801 0.71381,0.1527 1.02429,0.1527 0.31209,0 0.69148,-0.0771 0.67169,-0.13643 -0.008,-0.0241 -0.20135,-0.11616 -0.4296,-0.20461 -1.02178,-0.39594 -1.74391,-0.84206 -2.43501,-1.5043 -0.6791,-0.65074 -1.02999,-1.2194 -1.16548,-1.88879 -0.0842,-0.41597 -0.0849,-1.18279 -10e-4,-1.66841 0.12291,-0.71572 0.45861,-1.62867 0.78712,-2.14061 0.0709,-0.11045 0.11804,-0.21832 0.10481,-0.23971 -0.0514,-0.0832 -0.48636,-0.0971 -0.85969,-0.0276 -0.56932,0.10605 -0.94442,0.3807 -1.04041,0.76179 -0.0886,0.3518 -0.28192,0.36477 -0.28341,0.019 -10e-4,-0.33892 0.35374,-0.80482 0.74582,-0.97825 0.22193,-0.0982 0.75269,-0.20482 1.01938,-0.20482 h 0.19207 l -0.0345,-0.13758 c -0.0688,-0.27415 -0.0409,-0.46658 0.10037,-0.6926 0.0744,-0.11899 0.13524,-0.24401 0.13524,-0.27783 0,-0.0817 -0.21937,-0.28899 -0.30577,-0.28899 -0.19995,0 -0.27966,-0.16725 -0.12035,-0.25251 0.2024,-0.10832 0.56494,0.0421 0.66215,0.27482 0.0805,0.19275 0.0761,0.29938 -0.0244,0.59153 -0.0915,0.26583 -0.11328,0.67582 -0.0384,0.72208 0.0254,0.0157 0.10247,-0.0396 0.1712,-0.12303 0.15704,-0.19051 0.34468,-0.2443 0.73666,-0.21117 0.28478,0.0241 0.3074,0.0196 0.37303,-0.0741 0.0828,-0.1182 0.0886,-0.25585 0.0191,-0.4483 -0.0997,-0.27581 0.19179,-0.31162 0.32095,-0.0394 0.15142,0.31909 0.01,0.70133 -0.32088,0.86534 -0.18113,0.0899 -0.21932,0.0945 -0.42703,0.0513 -0.25865,-0.0537 -0.42142,-0.014 -0.4933,0.12031 -0.13082,0.24443 0.0781,0.35625 0.67476,0.36127 0.36327,0.003 0.42058,-0.008 0.59266,-0.10963 0.28218,-0.16739 0.52817,-0.4247 0.63771,-0.66708 0.066,-0.14594 0.12219,-0.21475 0.1755,-0.21475 0.22425,0 0.0795,0.42612 -0.25971,0.76471 -0.33363,0.33299 -0.64207,0.4739 -1.08867,0.49734 -0.30681,0.0161 -0.35383,0.0288 -0.35383,0.0954 0,0.0423 0.0164,0.087 0.0365,0.0994 0.0201,0.0124 0.0602,0.10716 0.0892,0.21053 0.065,0.23207 0.0118,0.42511 -0.16324,0.59282 -0.14631,0.14017 -0.46549,0.24607 -0.56828,0.18854 -0.1119,-0.0626 -0.0875,-0.20054 0.0449,-0.25364 0.36358,-0.14585 0.39298,-0.20272 0.28922,-0.55962 -0.0427,-0.14703 -0.10904,-0.26548 -0.17972,-0.32108 -0.10498,-0.0826 -0.11687,-0.0837 -0.19007,-0.0174 -0.10838,0.0981 -0.46956,0.85573 -0.60284,1.26457 -0.31715,0.97291 -0.35768,2.16633 -0.0956,2.81519 0.17801,0.4407 0.3734,0.72135 0.81075,1.16451 0.48697,0.49345 0.85144,0.77353 1.39423,1.0714 0.56339,0.30918 1.70226,0.76929 1.90417,0.76929 0.12943,0 0.68724,-0.58735 0.98216,-1.03417 0.16029,-0.24285 0.342,-0.47146 0.4038,-0.50802 0.185,-0.10944 0.40883,-0.0825 0.69197,0.0832 0.32295,0.18905 1.1806,0.60795 1.56633,0.76503 0.28195,0.11482 0.3329,0.12126 1.04967,0.13261 0.4584,0.007 0.78514,-0.005 0.83457,-0.0316 0.0447,-0.0239 0.17681,-0.22891 0.2936,-0.45555 0.38395,-0.74503 0.7408,-1.09535 1.22345,-1.20107 0.13166,-0.0288 0.25434,-0.0727 0.27263,-0.0974 0.0183,-0.0247 0.028,-0.35086 0.0216,-0.72474 -0.0102,-0.59049 -0.002,-0.69474 0.0629,-0.79358 0.10488,-0.16007 0.52504,-0.35966 0.95567,-0.45398 0.47333,-0.10367 0.76494,-0.20581 1.26876,-0.44441 0.88323,-0.41827 1.23977,-0.71368 1.50029,-1.24305 0.13631,-0.27698 0.13693,-0.28119 0.13499,-0.91406 -0.002,-0.56259 -0.0169,-0.69673 -0.13192,-1.16497 -0.0715,-0.29104 -0.17423,-0.75293 -0.2283,-1.02643 -0.0541,-0.2735 -0.10901,-0.51288 -0.12207,-0.53196 -0.0131,-0.0191 -0.28093,-0.0216 -0.59526,-0.006 -0.31432,0.016 -0.92392,0.0245 -1.35466,0.0188 -1.06991,-0.0142 -1.34734,-0.10074 -1.52964,-0.47733 -0.11455,-0.23663 -0.12478,-0.55774 -0.0461,-1.44561 0.0373,-0.42026 0.0404,-0.61906 0.0101,-0.63778 -0.0242,-0.015 -0.12477,-0.0164 -0.22347,-0.003 l -0.17945,0.024 -0.0278,0.635 c -0.0447,1.02017 -0.196,1.48033 -0.55539,1.68911 -0.31824,0.18488 -1.12376,0.32368 -2.59845,0.44775 -1.47925,0.12446 -2.01383,-0.0442 -2.11336,-0.66658 -0.0156,-0.0973 0.005,-0.57948 0.046,-1.07164 0.0606,-0.73075 0.0642,-0.90106 0.0192,-0.92885 -0.0303,-0.0187 -0.83762,-0.0294 -1.7941,-0.0238 -1.64781,0.01 -1.75349,0.015 -2.01422,0.10083 -0.39701,0.1307 -0.72629,0.33984 -0.81402,0.51702 -0.0403,0.0813 -0.10291,0.25809 -0.13925,0.39289 -0.1035,0.38393 -0.32615,0.52651 -0.50816,0.32539 -0.0717,-0.0793 -0.0737,-0.11485 -0.0259,-0.47374 0.0284,-0.21343 0.0834,-0.45504 0.1223,-0.53691 0.15493,-0.32648 0.63689,-0.66561 1.21684,-0.85624 0.27095,-0.0891 0.38518,-0.0985 1.3335,-0.11017 0.57044,-0.007 1.80869,-0.008 2.75167,-0.002 2.71318,0.0177 3.30887,0.01 4.23333,-0.0549 0.47731,-0.0335 1.31551,-0.0617 1.86267,-0.0626 0.54716,-9.4e-4 1.3446,-0.0179 1.7721,-0.0378 l 0.77726,-0.0361 0.0612,-0.14645 c 0.12413,-0.29709 0.31009,-1.14597 0.34852,-1.59099 0.0235,-0.27229 0.0245,-0.61781 0.002,-0.85123 -0.0665,-0.7026 -0.29029,-1.1094 -0.76501,-1.39049 -0.41104,-0.24337 -0.64224,-0.2965 -1.19592,-0.27479 -0.54918,0.0215 -1.0239,0.15775 -1.65514,0.47496 -0.35398,0.17788 -0.38591,0.18641 -0.47625,0.12722 -0.12451,-0.0816 -0.1299,-0.31807 -0.0131,-0.57546 0.093,-0.20491 0.10988,-0.60977 0.0461,-1.10443 -0.0582,-0.45146 -0.1619,-0.7204 -0.37762,-0.97959 -0.7885,-0.94734 -2.14891,-1.32074 -3.34784,-0.91891 -0.79844,0.26761 -1.24777,0.58417 -1.6452,1.15907 -0.26846,0.38835 -0.55883,0.97917 -0.55883,1.13706 0,0.0645 -0.0321,0.18454 -0.0714,0.26682 -0.0565,0.11849 -0.0959,0.14961 -0.18952,0.14961 -0.20018,0 -0.25225,-0.13997 -0.31284,-0.84086 -0.0298,-0.34454 -0.0819,-0.69157 -0.1158,-0.7712 -0.23548,-0.55299 -0.97733,-1.15547 -1.73711,-1.41075 -0.62968,-0.21157 -1.98482,-0.28487 -2.52638,-0.13667 -0.83244,0.22781 -1.52742,0.8119 -1.71704,1.44306 -0.0353,0.11747 -0.0917,0.49933 -0.12543,0.84858 -0.0795,0.82366 -0.0887,0.86217 -0.21438,0.89371 -0.15055,0.0378 -0.27271,-0.0619 -0.53568,-0.43722 -0.53759,-0.7672 -1.54571,-1.45009 -2.14216,-1.45108 -0.22284,-3.8e-4 -0.9629,0.1618 -1.40273,0.30738 -0.321482,0.10641 -0.435929,0.1675 -0.575705,0.30727 -0.204398,0.2044 -0.509278,0.78793 -0.546664,1.04629 -0.04419,0.30537 0.04484,0.71655 0.338378,1.56275 0.233512,0.67316 0.274192,0.8295 0.237054,0.91101 -0.03423,0.0751 -0.07916,0.0984 -0.190033,0.0984 -0.124909,0 -0.206382,-0.0568 -0.582991,-0.40656 -0.605717,-0.5625 -1.054773,-0.8921 -1.319614,-0.96858 -0.536841,-0.15501 -1.061505,-0.18934 -1.594676,-0.10435 -0.328778,0.0524 -1.232475,0.47252 -1.515772,0.70466 -0.223939,0.1835 -0.449121,0.52276 -0.565672,0.85223 -0.199527,0.56404 0.0035,1.53715 0.487291,2.33584 0.239091,0.3947 0.27747,0.52702 0.196654,0.67803 -0.05164,0.0965 -0.287865,0.16784 -0.556694,0.16816 -0.460681,5.5e-4 -1.337898,0.24223 -1.682969,0.46366 -0.114771,0.0737 -0.258812,0.19964 -0.320091,0.27998 -0.274595,0.36001 -0.483172,1.01056 -0.424417,1.32375 0.07472,0.39827 0.19289,0.59608 0.659245,1.10349 0.285659,0.31081 0.579559,0.58233 0.769405,0.7108 0.410653,0.27791 0.416708,0.33509 0.07922,0.74811 -0.140108,0.17146 -0.415397,0.45761 -0.611754,0.63587 -0.261547,0.23745 -0.381489,0.38102 -0.448546,0.5369 -0.14263,0.33155 -0.320846,1.06529 -0.406048,1.67174 -0.06825,0.48577 -0.07075,0.585 -0.02069,0.82087 0.101185,0.4768 0.376973,0.74448 0.899298,0.87285 0.489136,0.12022 0.854656,0.0999 1.487922,-0.0829 0.624276,-0.18017 1.046572,-0.33273 1.180263,-0.42637 0.122255,-0.0856 0.346281,-0.0825 0.434847,0.006 0.08027,0.0803 0.07956,0.0869 -0.08939,0.83929 -0.148539,0.66148 -0.164175,1.27352 -0.03893,1.524 0.109244,0.21849 0.347568,0.3496 0.773528,0.42555 0.682276,0.12166 1.197428,0.0622 1.713848,-0.19788 0.407539,-0.20522 0.619536,-0.36294 0.941624,-0.70052 0.258892,-0.27135 0.315202,-0.31057 0.445664,-0.31045 0.187738,1.7e-4 0.337503,0.10226 0.337503,0.23005 0,0.14797 0.08638,0.36237 0.436118,1.08242 0.333223,0.68606 0.461894,0.85395 0.770384,1.00526 0.15412,0.0756 0.55901,0.1932 0.8255,0.23979 0.14525,0.0254 0.95107,-0.0158 1.18981,-0.0608 z m 13.71153,-8.1461 c -0.31433,-0.0303 -0.62865,-0.0697 -0.6985,-0.0875 -0.40659,-0.10379 -0.8461,-0.4719 -1.06684,-0.8935 -0.13532,-0.25847 -0.1107,-0.41393 0.0828,-0.5225 0.13968,-0.0784 0.22458,-0.0381 0.34906,0.16581 0.3184,0.52147 0.62298,0.68006 1.30333,0.67866 0.43394,-9e-4 1.67128,-0.0807 2.64987,-0.17092 0.60653,-0.0559 0.69616,-0.0337 0.79241,0.1967 0.11162,0.26715 -0.013,0.47604 -0.36411,0.61029 -0.21018,0.0804 -2.29012,0.0961 -3.048,0.023 z m -1.02781,7.70007 c 0.12648,-0.0263 0.19391,-0.15546 0.12658,-0.24243 -0.0382,-0.0494 -0.19682,-0.0785 -0.62277,-0.11439 -1.02601,-0.0865 -1.8317,-0.27795 -2.17252,-0.51634 -0.0741,-0.0518 -0.28938,-0.2236 -0.47849,-0.38179 -0.18911,-0.15819 -0.37369,-0.28761 -0.41017,-0.28761 -0.0462,0 -0.10209,0.11244 -0.18412,0.37041 -0.0713,0.22424 -0.19055,0.47689 -0.30218,0.6402 -0.12151,0.17776 -0.17013,0.28405 -0.14256,0.31162 0.0549,0.0549 0.74729,0.19753 1.15004,0.23692 0.32774,0.032 2.86912,0.0182 3.03619,-0.0166 z m 7.73928,-2.21475 c 0.32571,-0.14795 0.64148,-0.61903 0.71542,-1.06729 0.0307,-0.18622 0.1574,-0.31108 0.40388,-0.39804 0.28452,-0.10038 0.33956,-0.16892 0.33956,-0.42283 0,-0.39245 -0.25836,-0.51935 -0.89427,-0.43926 -0.29542,0.0372 -0.38834,0.0349 -0.48683,-0.0123 -0.15945,-0.0763 -0.22654,-0.27942 -0.17805,-0.53897 0.0447,-0.23915 0.0236,-0.30175 -0.10111,-0.30055 -0.28926,0.003 -0.86952,0.46805 -1.18295,0.94852 -0.31556,0.48373 -0.42661,1.15407 -0.24889,1.50242 0.10019,0.1964 0.53847,0.60192 0.77948,0.72122 0.22524,0.11149 0.61672,0.11473 0.85376,0.007 z m -8.90281,-8.52473 c 0.29414,-0.31816 0.97834,-1.49679 0.95601,-1.64685 -0.0188,-0.12602 -0.14021,-0.19695 -0.23576,-0.13767 -0.17202,0.10674 -1.19591,1.59997 -1.19591,1.74411 0,0.0924 0.14439,0.22033 0.24875,0.22033 0.0333,0 0.13543,-0.081 0.22691,-0.17992 z m 5.37724,-0.0662 c 0.0842,-0.0723 0.65391,-0.99338 0.79838,-1.29074 0.0789,-0.16235 0.0867,-0.21329 0.0464,-0.30173 -0.0543,-0.11929 -0.24078,-0.18538 -0.34366,-0.12184 -0.0371,0.0229 -0.18744,0.25842 -0.33399,0.52328 -0.14655,0.26486 -0.31049,0.53941 -0.36431,0.61011 -0.18081,0.23751 -0.27577,0.46305 -0.22966,0.54545 0.085,0.1519 0.2731,0.16753 0.42683,0.0355 z m -6.0346,-0.19872 c 0.1558,-0.10913 0.8167,-1.15821 0.8167,-1.29639 0,-0.0956 -0.13957,-0.20611 -0.2603,-0.20611 -0.13286,0 -0.17619,0.0508 -0.6538,0.76603 -0.30062,0.4502 -0.34142,0.61935 -0.17715,0.73441 0.1172,0.0821 0.15984,0.0824 0.27455,0.002 z m 5.67524,-0.55 c 0.26408,-0.43093 0.39079,-0.68408 0.39079,-0.78078 0,-0.12516 -0.18201,-0.2329 -0.29305,-0.17347 -0.14327,0.0767 -0.68062,0.918 -0.68062,1.06565 0,0.10711 0.14243,0.21035 0.27256,0.19757 0.10887,-0.0107 0.15672,-0.0583 0.31032,-0.30897 z"
         id="path407" />
    </g>
  </g>
</svg>
